<?xml version="1.0" encoding="utf-8"?><!DOCTYPE svg PUBLIC "-//W3C//DTD SVG 1.1//EN" "http://www.w3.org/Graphics/SVG/1.1/DTD/svg11.dtd"><svg version="1.1" baseProfile="full" xmlns="http://www.w3.org/2000/svg" xmlns:xlink="http://www.w3.org/1999/xlink" xmlns:ev="http://www.w3.org/2001/xml-events"   height="66px"   width="73px" ><path fill="rgb( 230, 103, 103 )" d="M71.498,54.677 C71.498,54.677 43.647,5.81100000000001 43.647,5.81100000000001 C43.647,5.81100000000001 43.6369999999999,5.81700000000001 43.6369999999999,5.81700000000001 C43.288,5.09800000000001 42.838,4.42400000000001 42.249,3.82599999999999 C39.439,0.97999999999999 34.881,0.97999999999999 32.071,3.82599999999999 C31.5599999999999,4.34200000000001 31.1420000000001,4.92099999999999 30.824,5.53200000000001 C30.824,5.53200000000001 30.824,5.52799999999999 30.824,5.52799999999999 C30.824,5.52799999999999 2.99199999999996,54.404 2.99199999999996,54.404 C2.99199999999996,54.404 2.99199999999996,54.415 2.99199999999996,54.415 C2.55200000000002,55.068 2.20299999999997,55.806 1.99400000000003,56.618 C0.96400000000006,60.511 3.24199999999996,64.514 7.08100000000002,65.552 C7.77200000000005,65.74 8.471,65.814 9.15999999999997,65.794 C9.15999999999997,65.794 64.849,65.785 64.849,65.785 C64.849,65.785 64.849,65.779 64.849,65.779 C67.5170000000001,65.966 70.177,64.655 71.609,62.157 C72.976,59.748 72.846,56.88 71.498,54.677 ZM40.458,54.91 C39.499,55.827 38.378,56.289 37.1,56.289 C35.798,56.289 34.66,55.827 33.711,54.91 C32.751,53.983 32.271,52.884 32.271,51.601 C32.271,50.326 32.751,49.222 33.711,48.28 C34.66,47.338 35.798,46.876 37.1,46.876 C38.378,46.876 39.501,47.338 40.458,48.28 C41.419,49.222 41.898,50.326 41.898,51.601 C41.898,52.885 41.419,53.983 40.458,54.91 ZM41.6079999999999,26.334 C41.3680000000001,27.479 41.057,28.817 40.689,30.356 C40.337,31.805 39.928,33.618 39.487,35.792 C39.027,37.958 38.559,40.643 38.049,43.833 C38.049,43.833 36.121,43.833 36.121,43.833 C35.62,40.607 35.14,37.923 34.6799999999999,35.774 C34.2329999999999,33.633 33.832,31.831 33.481,30.375 C33.1609999999999,29.044 32.873,27.743 32.603,26.461 C32.333,25.184 32.203,24.227 32.203,23.579 C32.203,22.287 32.673,21.178 33.631,20.252 C34.59,19.328 35.732,18.873 37.0700000000001,18.873 C38.39,18.873 39.538,19.328 40.5069999999999,20.252 C41.4880000000001,21.178 41.98,22.287 41.98,23.579 C41.98,24.277 41.849,25.194 41.6079999999999,26.334 Z "/></svg>