<?xml version="1.0" encoding="utf-8"?><!DOCTYPE svg PUBLIC "-//W3C//DTD SVG 1.1//EN" "http://www.w3.org/Graphics/SVG/1.1/DTD/svg11.dtd"><svg version="1.1" baseProfile="full" xmlns="http://www.w3.org/2000/svg" xmlns:xlink="http://www.w3.org/1999/xlink" xmlns:ev="http://www.w3.org/2001/xml-events"   height="26px"   width="24px" ><path fill="rgb( 255, 255, 255 )" d="M23.955,13.354 C23.902,13.596 23.687,13.744 23.456,13.725 C23.216,13.705 23.035,13.535 23.016,13.284 C22.976,12.758 22.972,12.229 22.911,11.706 C22.681,9.73900000000003 21.966,7.96100000000001 20.766,6.38599999999997 C19.089,4.18399999999997 16.885,2.779 14.187,2.226 C11.211,1.61699999999996 8.43000000000001,2.18499999999995 5.88200000000001,3.85299999999995 C5.745,3.94299999999998 5.611,4.03800000000001 5.46599999999999,4.11199999999997 C5.236,4.22799999999995 5.04000000000001,4.15099999999995 4.887,3.96299999999997 C4.736,3.77800000000002 4.746,3.51400000000001 4.923,3.34299999999996 C5.053,3.21799999999996 5.206,3.11599999999999 5.358,3.01700000000005 C7.81,1.41600000000005 10.495,0.71299999999997 13.399,1.10799999999995 C17.858,1.71500000000003 21.046,4.11199999999997 22.965,8.18299999999999 C23.614,9.55999999999995 23.978,11.351 24,12.8680000000001 C23.986,13.0309999999999 23.989,13.197 23.955,13.354 ZM4.02500000000001,5.42399999999998 C2.501,7.03200000000004 1.54600000000001,8.93200000000002 1.158,11.109 C0.901,12.547 0.935,13.9880000000001 1.26600000000001,15.4160000000001 C1.282,15.487 1.301,15.557 1.312,15.629 C1.35899999999999,15.946 1.223,16.178 0.955,16.2430000000001 C0.676,16.311 0.444,16.1609999999999 0.35599999999999,15.8339999999999 C0.102,14.889 0.01900000000001,13.921 0,12.879 C0.071,9.74300000000005 1.182,6.96799999999996 3.401,4.649 C3.464,4.58399999999995 3.526,4.51599999999996 3.599,4.46199999999999 C3.797,4.31500000000005 4.051,4.33199999999999 4.22199999999999,4.49400000000003 C4.392,4.65300000000002 4.428,4.91600000000005 4.292,5.11500000000001 C4.21599999999999,5.22699999999998 4.119,5.32500000000005 4.02500000000001,5.42399999999998 ZM2.77,17.188 C3.172,16.337 3.181,15.455 3.026,14.546 C2.94,14.0359999999999 2.91500000000001,13.516 2.88500000000001,12.999 C2.864,12.644 3.05500000000001,12.425 3.34999999999999,12.41 C3.64700000000001,12.395 3.834,12.601 3.86799999999999,12.953 C3.931,13.614 4.006,14.273 4.07299999999999,14.933 C4.095,15.15 4.11,15.3680000000001 4.122,15.518 C4.083,17.027 3.538,18.2329999999999 2.467,19.197 C2.232,19.408 1.962,19.41 1.759,19.213 C1.557,19.015 1.557,18.715 1.792,18.487 C2.18899999999999,18.105 2.53400000000001,17.6900000000001 2.77,17.188 ZM11.275,4.92100000000005 C7.85599999999999,5.21000000000004 5.015,7.62199999999996 4.14,10.937 C4.117,11.024 4.099,11.114 4.06999999999999,11.2 C3.97499999999999,11.478 3.733,11.627 3.485,11.563 C3.199,11.489 3.033,11.2329999999999 3.13,10.931 C3.328,10.309 3.49299999999999,9.66499999999996 3.783,9.08600000000001 C5.206,6.24400000000003 7.48099999999999,4.52200000000005 10.631,4.00099999999998 C11.078,3.92700000000002 11.534,3.90700000000004 11.967,3.86400000000003 C12.424,3.90800000000002 12.858,3.94200000000001 13.29,3.99400000000003 C13.669,4.03899999999999 13.847,4.24400000000003 13.807,4.55700000000002 C13.771,4.84799999999996 13.512,4.99199999999996 13.149,4.97199999999998 C12.524,4.93899999999996 11.894,4.86800000000005 11.275,4.92100000000005 ZM5.36,18.442 C5.96899999999999,17.1420000000001 6.16,15.783 5.892,14.372 C5.52800000000001,12.451 5.88200000000001,10.697 7.09099999999999,9.14800000000002 C8.09099999999999,7.86800000000005 9.405,7.08399999999995 11.014,6.84699999999998 C13.284,6.51199999999994 15.192,7.23800000000006 16.719,8.93499999999995 C17.584,9.89499999999998 18.019,11.061 18.216,12.331 C18.401,13.53 18.504,14.7329999999999 18.487,15.946 C18.485,16.045 18.483,16.147 18.46,16.2430000000001 C18.398,16.5 18.191,16.646 17.939,16.624 C17.707,16.605 17.52,16.425 17.51,16.173 C17.496,15.818 17.506,15.463 17.506,15.131 C17.418,13.773 17.39,12.418 16.897,11.16 C16.088,9.09799999999996 14.539,7.93899999999996 12.332,7.77099999999996 C9.70399999999999,7.57100000000003 7.393,9.36000000000001 6.84699999999999,11.942 C6.681,12.73 6.761,13.509 6.878,14.299 C7.303,17.172 6.40300000000001,19.568 4.22199999999999,21.481 C3.98,21.693 3.682,21.673 3.49299999999999,21.457 C3.307,21.2430000000001 3.33,20.9589999999999 3.58799999999999,20.735 C4.334,20.0890000000001 4.94,19.3390000000001 5.36,18.442 ZM7.419,20.606 C8.35899999999999,19.187 8.80200000000001,17.5940000000001 8.86799999999999,15.895 C8.874,15.731 8.872,15.566 8.89700000000001,15.404 C8.93600000000001,15.145 9.142,14.978 9.389,14.984 C9.63500000000001,14.99 9.831,15.167 9.85899999999999,15.429 C9.874,15.564 9.86199999999999,15.701 9.86199999999999,15.838 C9.741,18.732 8.666,21.204 6.584,23.226 C6.33499999999999,23.468 6.039,23.481 5.833,23.274 C5.64,23.079 5.664,22.799 5.875,22.5410000000001 C6.398,21.902 6.96599999999999,21.2910000000001 7.419,20.606 ZM10.527,20.975 C11.431,19.085 11.857,17.097 11.732,15.002 C11.696,14.396 11.601,13.793 11.52,13.1900000000001 C11.475,12.852 11.612,12.591 11.893,12.5309999999999 C12.189,12.467 12.442,12.646 12.489,13.011 C12.613,13.9829999999999 12.714,14.958 12.824,15.931 C12.798,15.934 12.773,15.937 12.748,15.9400000000001 C12.631,19.1369999999999 11.533,21.95 9.45399999999999,24.379 C9.23,24.64 8.92700000000001,24.683 8.712,24.498 C8.49299999999999,24.308 8.477,24.018 8.70399999999999,23.746 C9.41800000000001,22.891 10.045,21.982 10.527,20.975 ZM13.652,20.968 C14.686,18.224 14.886,15.412 14.329,12.5410000000001 C14.114,11.438 13.134,10.634 12.022,10.617 C10.918,10.601 9.902,11.3869999999999 9.67400000000001,12.4829999999999 C9.605,12.812 9.649,13.168 9.66500000000001,13.511 C9.685,13.914 9.453,14.174 9.093,14.116 C8.82299999999999,14.073 8.721,13.873 8.678,13.6369999999999 C8.51000000000001,12.706 8.691,11.842 9.23399999999999,11.069 C10.028,9.93700000000001 11.42,9.40499999999997 12.73,9.71100000000001 C14.106,10.032 15.119,11.107 15.323,12.516 C15.47,13.5309999999999 15.569,14.554 15.689,15.573 C15.667,15.575 15.644,15.578 15.621,15.58 C15.611,18.914 14.66,21.958 12.808,24.723 C12.624,24.998 12.345,25.073 12.106,24.923 C11.849,24.763 11.799,24.468 12.002,24.159 C12.665,23.153 13.226,22.097 13.652,20.968 ZM16.136,22.49 C16.73,21.056 17.123,19.568 17.34,18.032 C17.346,17.996 17.346,17.9589999999999 17.353,17.923 C17.417,17.624 17.639,17.4400000000001 17.905,17.466 C18.168,17.491 18.339,17.7190000000001 18.374,18.044 C18.196,18.8680000000001 18.037,19.698 17.836,20.5170000000001 C17.554,21.667 17.132,22.77 16.613,23.833 C16.54,23.9829999999999 16.396,24.155 16.251,24.196 C16.108,24.236 15.854,24.173 15.773,24.063 C15.675,23.929 15.647,23.681 15.698,23.516 C15.807,23.163 15.994,22.8339999999999 16.136,22.49 ZM20.034,19.328 C20.503,16.832 20.475,14.337 20.043,11.836 C19.692,9.79899999999998 18.796,8.07600000000002 17.188,6.77499999999998 C16.602,6.29999999999995 15.904,5.96199999999999 15.254,5.56600000000003 C15.162,5.50900000000001 15.054,5.48000000000002 14.956,5.43399999999997 C14.65,5.29100000000005 14.529,5.04300000000001 14.634,4.77599999999995 C14.739,4.505 15.021,4.399 15.343,4.53399999999999 C15.686,4.678 16.033,4.82100000000003 16.356,5.00400000000002 C18.953,6.47900000000004 20.52,8.69100000000003 20.997,11.644 C21.185,12.8099999999999 21.292,13.9880000000001 21.436,15.1609999999999 C21.413,15.163 21.39,15.1660000000001 21.367,15.169 C21.403,17.182 21.156,19.162 20.662,21.112 C20.603,21.346 20.505,21.574 20.24,21.579 C20.082,21.583 19.857,21.505 19.777,21.3869999999999 C19.686,21.252 19.684,21.023 19.714,20.848 C19.803,20.338 19.939,19.837 20.034,19.328 Z "/></svg>