<?xml version="1.0" encoding="utf-8"?><!DOCTYPE svg PUBLIC "-//W3C//DTD SVG 1.1//EN" "http://www.w3.org/Graphics/SVG/1.1/DTD/svg11.dtd"><svg version="1.1" baseProfile="full" xmlns="http://www.w3.org/2000/svg" xmlns:xlink="http://www.w3.org/1999/xlink" xmlns:ev="http://www.w3.org/2001/xml-events"   height="7px"   width="11px" ><path fill="rgb( 3, 188, 197 )" d="M6.14799999999991,5.95699999999999 C6.12100000000009,5.995 6.10500000000002,6.03700000000001 6.07199999999989,6.071 C5.91399999999999,6.22900000000001 5.7059999999999,6.30199999999999 5.5,6.29599999999999 C5.2940000000001,6.30199999999999 5.08600000000001,6.22900000000001 4.92800000000011,6.071 C4.89499999999998,6.03700000000001 4.87899999999991,5.995 4.85200000000009,5.95699999999999 C4.85200000000009,5.95699999999999 0.92800000000011,2.03200000000001 0.92800000000011,2.03200000000001 C0.62300000000005,1.727 0.62300000000005,1.233 0.92800000000011,0.928 C1.23299999999995,0.62299999999999 1.72800000000007,0.62299999999999 2.0329999999999,0.928 C2.0329999999999,0.928 5.5,4.39500000000001 5.5,4.39500000000001 C5.5,4.39500000000001 8.9670000000001,0.928 8.9670000000001,0.928 C9.27199999999993,0.62299999999999 9.76700000000005,0.62299999999999 10.0719999999999,0.928 C10.377,1.233 10.377,1.727 10.0719999999999,2.03200000000001 C10.0719999999999,2.03200000000001 6.14799999999991,5.95699999999999 6.14799999999991,5.95699999999999 Z "/></svg>