<?xml version="1.0" encoding="utf-8"?><!DOCTYPE svg PUBLIC "-//W3C//DTD SVG 1.1//EN" "http://www.w3.org/Graphics/SVG/1.1/DTD/svg11.dtd"><svg version="1.1" baseProfile="full" xmlns="http://www.w3.org/2000/svg" xmlns:xlink="http://www.w3.org/1999/xlink" xmlns:ev="http://www.w3.org/2001/xml-events"   height="22px"   width="22px" ><path fill="rgb( 255, 255, 255 )" d="M4.52200000000001,14.383 C4.574,14.55 4.474,14.7249999999999 4.297,14.7750000000001 C4.265,14.7840000000001 4.233,14.788 4.202,14.788 C4.05800000000001,14.788 3.92400000000001,14.6990000000001 3.88200000000001,14.5619999999999 C3.685,13.931 3.58499999999999,13.2739999999999 3.584,12.61 C3.584,12.4349999999999 3.753,12.3049999999999 3.91800000000001,12.294 C4.102,12.294 4.251,12.4349999999999 4.251,12.609 C4.253,13.212 4.34399999999999,13.809 4.52200000000001,14.383 ZM4.102,11.049 C4.133,11.058 4.164,11.062 4.19499999999999,11.062 C4.34,11.062 4.474,10.972 4.51600000000001,10.8339999999999 C4.693,10.258 4.95699999999999,9.70899999999995 5.3,9.20299999999997 C5.399,9.05499999999995 5.355,8.86000000000001 5.199,8.76599999999996 C5.04300000000001,8.67200000000003 4.837,8.71400000000006 4.738,8.86199999999997 C4.36,9.41899999999998 4.06999999999999,10.023 3.875,10.658 C3.82299999999999,10.825 3.92400000000001,11 4.102,11.049 ZM5.313,16.011 C5.21299999999999,15.865 5.00700000000001,15.8219999999999 4.852,15.9179999999999 C4.697,16.0119999999999 4.65300000000001,16.2070000000001 4.753,16.354 C5.13200000000001,16.9079999999999 5.592,17.4079999999999 6.122,17.8409999999999 C6.185,17.893 6.26300000000001,17.9179999999999 6.34,17.9179999999999 C6.434,17.9179999999999 6.526,17.8810000000001 6.592,17.809 C6.71299999999999,17.6769999999999 6.69799999999999,17.4770000000001 6.55800000000001,17.3630000000001 C6.077,16.97 5.658,16.5150000000001 5.313,16.011 ZM13.66,6.85500000000002 C14.238,7.10299999999995 14.776,7.42700000000002 15.258,7.81899999999996 C15.321,7.87 15.398,7.89599999999996 15.475,7.89599999999996 C15.569,7.89599999999996 15.662,7.85799999999995 15.728,7.78599999999994 C15.849,7.654 15.833,7.45399999999995 15.693,7.34100000000001 C15.163,6.90899999999999 14.572,6.55200000000002 13.936,6.279 C13.768,6.20600000000002 13.57,6.27700000000004 13.494,6.43600000000004 C13.419,6.59500000000003 13.493,6.78300000000002 13.66,6.85500000000002 ZM9.89700000000001,6.36500000000001 C9.913,6.36500000000001 9.929,6.36400000000003 9.94499999999999,6.36199999999997 C10.571,6.27599999999995 11.219,6.274 11.84,6.35599999999999 C12.024,6.38199999999995 12.192,6.25900000000001 12.217,6.08699999999999 C12.242,5.91499999999996 12.115,5.755 11.933,5.73099999999999 C11.25,5.64099999999996 10.536,5.64200000000005 9.849,5.73699999999997 C9.666,5.76199999999994 9.54000000000001,5.92200000000003 9.566,6.09400000000005 C9.59099999999999,6.25199999999995 9.733,6.36500000000001 9.89700000000001,6.36500000000001 ZM6.318,7.92200000000003 C6.396,7.92200000000003 6.474,7.89599999999996 6.538,7.84500000000003 C7.018,7.44899999999996 7.553,7.12099999999998 8.128,6.87 C8.295,6.798 8.369,6.60900000000004 8.291,6.452 C8.215,6.29300000000001 8.015,6.22400000000005 7.849,6.29700000000003 C7.215,6.57299999999998 6.627,6.93299999999999 6.098,7.36900000000003 C5.95999999999999,7.48299999999995 5.94499999999999,7.68299999999999 6.066,7.81399999999996 C6.13200000000001,7.88499999999999 6.22499999999999,7.92200000000003 6.318,7.92200000000003 ZM13.684,18.327 C13.107,18.577 12.496,18.7470000000001 11.867,18.8320000000001 C11.685,18.857 11.558,19.0170000000001 11.584,19.1890000000001 C11.608,19.347 11.751,19.46 11.915,19.46 C11.93,19.46 11.946,19.46 11.962,19.4570000000001 C12.654,19.364 13.326,19.1759999999999 13.963,18.9010000000001 C14.13,18.828 14.203,18.6410000000001 14.127,18.482 C14.051,18.3240000000001 13.854,18.2539999999999 13.684,18.327 ZM17.908,12.2670000000001 C17.724,12.2670000000001 17.575,12.421 17.575,12.596 C17.575,13.2 17.484,13.797 17.307,14.3699999999999 C17.255,14.537 17.356,14.713 17.533,14.7619999999999 C17.565,14.771 17.596,14.7750000000001 17.627,14.7750000000001 C17.772,14.7750000000001 17.905,14.6859999999999 17.948,14.548 C18.144,13.9169999999999 18.242,13.26 18.242,12.597 C18.242,12.597 18.242,12.5700000000001 18.242,12.5700000000001 C18.242,12.395 18.093,12.2670000000001 17.908,12.2670000000001 ZM9.971,18.835 C9.343,18.75 8.73099999999999,18.5820000000001 8.152,18.3330000000001 C7.985,18.261 7.78700000000001,18.3309999999999 7.711,18.49 C7.634,18.6479999999999 7.708,18.836 7.876,18.9079999999999 C8.51300000000001,19.182 9.18600000000001,19.3679999999999 9.878,19.46 C9.89400000000001,19.462 9.90900000000001,19.4639999999999 9.925,19.4639999999999 C10.088,19.4639999999999 10.231,19.3489999999999 10.255,19.192 C10.281,19.018 10.154,18.8589999999999 9.971,18.835 ZM17.3,10.797 C17.342,10.934 17.475,11.022 17.619,11.022 C17.651,11.022 17.683,11.018 17.715,11.009 C17.892,10.9589999999999 17.993,10.784 17.939,10.616 C17.74,9.98299999999995 17.446,9.38 17.065,8.82600000000002 C16.965,8.67999999999995 16.758,8.63800000000003 16.603,8.73299999999995 C16.449,8.82799999999997 16.405,9.02300000000002 16.505,9.16999999999996 C16.851,9.67399999999998 17.118,10.222 17.3,10.797 ZM16.981,15.9059999999999 C16.826,15.8109999999999 16.619,15.854 16.519,16 C16.175,16.5050000000001 15.758,16.96 15.278,17.355 C15.139,17.4690000000001 15.124,17.6690000000001 15.244,17.8 C15.31,17.8720000000001 15.403,17.9090000000001 15.496,17.9090000000001 C15.573,17.9090000000001 15.652,17.883 15.715,17.8309999999999 C16.244,17.3969999999999 16.702,16.896 17.08,16.3409999999999 C17.18,16.1949999999999 17.135,16 16.981,15.9059999999999 ZM14.01,13.2170000000001 C14.154,13.451 14.226,13.713 14.226,14.002 C14.226,14.346 14.115,14.664 13.896,14.9549999999999 C13.677,15.2449999999999 13.366,15.4670000000001 12.964,15.6189999999999 C12.818,15.674 12.645,15.7190000000001 12.451,15.7550000000001 C12.451,15.7550000000001 12.451,16.9169999999999 12.451,16.9169999999999 C12.451,16.9169999999999 11.286,16.9169999999999 11.286,16.9169999999999 C11.286,16.9169999999999 11.286,15.846 11.286,15.846 C11.256,15.846 11.23,15.847 11.2,15.847 C11.2,15.847 10.538,15.847 10.538,15.847 C10.538,15.847 10.538,16.9169999999999 10.538,16.9169999999999 C10.538,16.9169999999999 9.373,16.9169999999999 9.373,16.9169999999999 C9.373,16.9169999999999 9.373,15.847 9.373,15.847 C9.373,15.847 7.598,15.847 7.598,15.847 C7.598,15.847 7.598,14.9480000000001 7.598,14.9480000000001 C7.598,14.9480000000001 7.869,14.9480000000001 7.869,14.9480000000001 C8.05,14.9480000000001 8.172,14.933 8.236,14.904 C8.3,14.874 8.345,14.8320000000001 8.371,14.778 C8.399,14.723 8.411,14.6010000000001 8.411,14.4110000000001 C8.411,14.4110000000001 8.411,10.7859999999999 8.411,10.7859999999999 C8.411,10.593 8.398,10.471 8.371,10.418 C8.345,10.365 8.301,10.322 8.236,10.292 C8.172,10.261 8.05,10.245 7.869,10.245 C7.869,10.245 7.598,10.245 7.598,10.245 C7.598,10.245 7.598,9.34500000000003 7.598,9.34500000000003 C7.598,9.34500000000003 9.373,9.34500000000003 9.373,9.34500000000003 C9.373,9.34500000000003 9.373,8.27599999999995 9.373,8.27599999999995 C9.373,8.27599999999995 10.538,8.27599999999995 10.538,8.27599999999995 C10.538,8.27599999999995 10.538,9.34500000000003 10.538,9.34500000000003 C10.538,9.34500000000003 11.286,9.34500000000003 11.286,9.34500000000003 C11.286,9.34500000000003 11.286,8.27599999999995 11.286,8.27599999999995 C11.286,8.27599999999995 12.451,8.27599999999995 12.451,8.27599999999995 C12.451,8.27599999999995 12.451,9.423 12.451,9.423 C12.621,9.45299999999997 12.778,9.49300000000005 12.911,9.54399999999998 C13.252,9.67499999999995 13.515,9.86500000000001 13.7,10.111 C13.882,10.359 13.974,10.63 13.974,10.925 C13.974,11.139 13.926,11.343 13.828,11.5359999999999 C13.731,11.728 13.591,11.898 13.409,12.046 C13.226,12.194 12.985,12.3150000000001 12.685,12.412 C13.006,12.49 13.253,12.575 13.423,12.669 C13.67,12.799 13.865,12.982 14.01,13.2170000000001 ZM10.112,11.978 C10.112,11.978 10.866,11.978 10.866,11.978 C11.261,11.978 11.552,11.948 11.74,11.885 C11.93,11.823 12.071,11.729 12.167,11.604 C12.262,11.479 12.309,11.333 12.309,11.168 C12.309,10.997 12.264,10.851 12.175,10.731 C12.085,10.609 11.953,10.523 11.783,10.472 C11.612,10.42 11.307,10.394 10.866,10.394 C10.866,10.394 10.113,10.394 10.113,10.394 C10.113,10.394 10.113,11.978 10.113,11.978 C10.113,11.978 10.112,11.978 10.112,11.978 ZM12.443,13.828 C12.443,13.635 12.395,13.473 12.301,13.3389999999999 C12.205,13.2059999999999 12.063,13.105 11.873,13.0360000000001 C11.682,12.968 11.393,12.934 11.002,12.934 C11.002,12.934 10.112,12.934 10.112,12.934 C10.112,12.934 10.112,14.3409999999999 10.112,14.3409999999999 C10.116,14.54 10.124,14.6569999999999 10.137,14.691 C10.153,14.7339999999999 10.18,14.7639999999999 10.219,14.7819999999999 C10.257,14.798 10.358,14.808 10.526,14.808 C10.526,14.808 11.027,14.808 11.027,14.808 C11.319,14.808 11.559,14.7819999999999 11.752,14.73 C11.943,14.6790000000001 12.107,14.5730000000001 12.24,14.4100000000001 C12.376,14.249 12.443,14.0550000000001 12.443,13.828 ZM21.004,12.534 C21.004,17.752 16.516,21.9960000000001 11,21.9960000000001 C5.48399999999999,21.9960000000001 0.997,17.751 0.997,12.534 C0.997,7.63599999999997 4.95099999999999,3.596 9.999,3.12 C9.999,3.12 9.999,1.89599999999996 9.999,1.89599999999996 C9.999,1.89599999999996 9.795,1.89599999999996 9.795,1.89599999999996 C9.242,1.89599999999996 8.794,1.47299999999996 8.794,0.94899999999996 C8.794,0.42600000000004 9.242,0.00199999999995 9.795,0.00199999999995 C9.795,0.00199999999995 12.204,0.00199999999995 12.204,0.00199999999995 C12.758,0.00199999999995 13.206,0.42600000000004 13.206,0.94899999999996 C13.206,1.47299999999996 12.758,1.89599999999996 12.204,1.89599999999996 C12.204,1.89599999999996 12.001,1.89599999999996 12.001,1.89599999999996 C12.001,1.89599999999996 12.001,3.12 12.001,3.12 C13.747,3.28499999999997 15.357,3.88 16.723,4.78399999999999 C16.723,4.78399999999999 17.599,3.95600000000002 17.599,3.95600000000002 C17.599,3.95600000000002 17.455,3.81899999999996 17.455,3.81899999999996 C17.064,3.45000000000005 17.064,2.85000000000002 17.455,2.48000000000002 C17.846,2.11000000000001 18.48,2.11000000000001 18.871,2.48000000000002 C18.871,2.48000000000002 20.575,4.09199999999998 20.575,4.09199999999998 C20.967,4.46199999999999 20.967,5.06200000000001 20.575,5.43100000000004 C20.38,5.61599999999999 20.123,5.70899999999995 19.867,5.70899999999995 C19.611,5.70899999999995 19.354,5.61599999999999 19.159,5.43100000000004 C19.159,5.43100000000004 19.015,5.29600000000005 19.015,5.29600000000005 C19.015,5.29600000000005 18.243,6.02599999999995 18.243,6.02599999999995 C19.949,7.72299999999996 21.004,10.0119999999999 21.004,12.534 ZM19.669,12.534 C19.669,8.01199999999994 15.78,4.33500000000004 11,4.33500000000004 C6.22,4.33500000000004 2.33199999999999,8.01300000000003 2.33199999999999,12.534 C2.33199999999999,17.0540000000001 6.22,20.7329999999999 11,20.7329999999999 C15.78,20.7329999999999 19.669,17.0540000000001 19.669,12.534 Z "/></svg>