<?xml version="1.0" encoding="utf-8"?><!DOCTYPE svg PUBLIC "-//W3C//DTD SVG 1.1//EN" "http://www.w3.org/Graphics/SVG/1.1/DTD/svg11.dtd"><svg version="1.1" baseProfile="full" xmlns="http://www.w3.org/2000/svg" xmlns:xlink="http://www.w3.org/1999/xlink" xmlns:ev="http://www.w3.org/2001/xml-events"   height="66px"   width="58px" ><path fill="rgb( 224, 230, 232 )" d="M57.005,38.159 C57.005,53.527 44.457,65.997 28.998,65.997 C13.537,65.997 0.98900000000003,53.527 0.98900000000003,38.159 C0.98900000000003,29.548 4.947,21.827 11.147,16.705 C11.147,16.705 10.026,14.775 10.026,14.775 C9.279,13.439 9.72699999999998,11.731 11.072,10.989 C11.072,10.989 14.283,9.13300000000001 14.283,9.13300000000001 C14.881,8.762 15.628,8.613 16.375,8.83600000000001 C17.122,8.98400000000001 17.7190000000001,9.43000000000001 18.092,10.098 C18.092,10.098 19.213,12.028 19.213,12.028 C21.752,11.063 24.366,10.469 27.13,10.321 C27.13,10.321 27.13,8.91 27.13,8.91 C25.412,8.24199999999999 24.2910000000001,6.60900000000001 24.2910000000001,4.679 C24.2910000000001,2.08000000000001 26.383,0.00200000000001 28.998,0.00200000000001 C31.611,0.00200000000001 33.702,2.155 33.702,4.679 C33.702,6.53399999999999 32.5069999999999,8.16800000000001 30.864,8.91 C30.864,8.91 30.864,10.321 30.864,10.321 C33.627,10.543 36.316,11.137 38.7809999999999,12.028 C38.7809999999999,12.028 39.901,10.098 39.901,10.098 C40.275,9.50399999999999 40.872,9.059 41.619,8.83600000000001 C42.2910000000001,8.68799999999999 43.039,8.762 43.71,9.13300000000001 C43.71,9.13300000000001 46.922,10.989 46.922,10.989 C48.266,11.731 48.7140000000001,13.439 47.968,14.775 C47.968,14.775 46.847,16.705 46.847,16.705 C53.047,21.827 57.005,29.548 57.005,38.159 ZM16.45,11.063 C16.3,10.84 16.076,10.692 15.852,10.618 C15.628,10.543 15.404,10.543 15.1799999999999,10.692 C15.1799999999999,10.692 11.968,12.548 11.968,12.548 C11.52,12.845 11.371,13.364 11.595,13.884 C11.595,13.884 12.64,15.591 12.64,15.591 C14.134,14.478 15.777,13.513 17.495,12.77 C17.495,12.77 16.45,11.063 16.45,11.063 ZM30.939,6.60900000000001 C30.939,6.60900000000001 30.939,6.83099999999999 30.939,6.83099999999999 C31.5359999999999,6.31200000000001 31.91,5.56899999999999 31.91,4.75299999999999 C31.91,3.19399999999999 30.64,1.93199999999999 29.072,1.93199999999999 C27.503,1.93199999999999 26.234,3.19399999999999 26.234,4.75299999999999 C26.234,5.56899999999999 26.533,6.31200000000001 27.204,6.83099999999999 C27.204,6.83099999999999 27.204,6.60900000000001 27.204,6.60900000000001 C27.204,5.56899999999999 28.026,4.75299999999999 29.072,4.75299999999999 C30.117,4.75299999999999 30.939,5.56899999999999 30.939,6.60900000000001 ZM46.026,12.548 C46.026,12.548 42.814,10.692 42.814,10.692 C42.665,10.618 42.366,10.543 42.143,10.618 C41.843,10.692 41.694,10.84 41.544,11.063 C41.544,11.063 40.498,12.696 40.498,12.696 C42.216,13.513 43.86,14.404 45.354,15.517 C45.354,15.517 46.399,13.81 46.399,13.81 C46.623,13.364 46.474,12.77 46.026,12.548 ZM28.998,14.032 C15.628,14.032 4.72299999999996,24.871 4.72299999999996,38.159 C4.72299999999996,51.448 15.628,62.286 28.998,62.286 C42.366,62.286 53.271,51.448 53.271,38.159 C53.271,24.871 42.366,14.032 28.998,14.032 ZM51.403,39.124 C51.403,39.124 49.61,39.124 49.61,39.124 C49.088,39.124 48.639,38.679 48.639,38.159 C48.639,37.639 49.014,37.269 49.535,37.194 C49.535,37.194 51.403,37.194 51.403,37.194 C51.926,37.194 52.374,37.639 52.374,38.159 C52.374,38.679 51.926,39.124 51.403,39.124 ZM48.864,27.766 C48.864,27.766 47.221,28.731 47.221,28.731 C47.072,28.805 46.922,28.88 46.772,28.88 C46.473,28.88 46.176,28.731 45.951,28.36 C45.727,27.915 45.876,27.321 46.324,27.098 C46.324,27.098 47.968,26.133 47.968,26.133 C48.4160000000001,25.91 49.014,26.059 49.2380000000001,26.504 C49.462,26.95 49.312,27.543 48.864,27.766 ZM40.648,58.203 C40.498,58.277 40.35,58.352 40.2,58.352 C39.901,58.352 39.527,58.203 39.379,57.905 C39.379,57.905 38.407,56.199 38.407,56.199 C38.183,55.753 38.333,55.159 38.7809999999999,54.936 C39.229,54.714 39.827,54.862 40.051,55.308 C40.051,55.308 41.022,56.94 41.022,56.94 C41.246,57.387 41.097,57.98 40.648,58.203 ZM40.051,21.01 C39.901,21.308 39.527,21.456 39.229,21.456 C39.08,21.456 38.931,21.382 38.7809999999999,21.308 C38.333,21.01 38.183,20.491 38.407,20.12 C38.407,20.12 39.379,18.486 39.379,18.486 C39.602,18.041 40.2,17.893 40.648,18.116 C41.097,18.338 41.246,18.932 41.022,19.378 C41.022,19.378 40.051,21.01 40.051,21.01 ZM31.2380000000001,36.378 C31.5359999999999,36.749 31.76,37.12 31.835,37.491 C31.985,38.159 31.91,38.902 31.5359999999999,39.57 C31.014,40.461 30.043,40.98 29.072,40.98 C28.848,40.98 28.698,40.906 28.549,40.906 C28.549,40.906 28.026,41.871 28.026,41.871 C27.876,42.168 27.503,42.316 27.204,42.316 C27.0549999999999,42.316 26.9059999999999,42.242 26.756,42.168 C26.308,41.945 26.159,41.351 26.383,40.906 C26.383,40.906 26.9059999999999,39.941 26.9059999999999,39.941 C26.607,39.644 26.383,39.273 26.308,38.902 C26.159,38.234 26.234,37.491 26.607,36.823 C27.13,35.932 28.1,35.413 29.072,35.413 C29.296,35.413 29.444,35.487 29.5940000000001,35.487 C29.5940000000001,35.487 35.7190000000001,24.871 35.7190000000001,24.871 C35.943,24.426 36.54,24.277 36.989,24.499 C37.436,24.723 37.586,25.316 37.362,25.762 C37.362,25.762 31.2380000000001,36.378 31.2380000000001,36.378 ZM29.893,38.011 C29.819,37.714 29.669,37.565 29.444,37.417 C29.296,37.343 29.146,37.269 28.998,37.269 C28.623,37.269 28.324,37.417 28.175,37.714 C28.1,37.937 28.026,38.159 28.1,38.456 C28.175,38.753 28.324,38.902 28.549,39.05 C28.998,39.273 29.5940000000001,39.124 29.819,38.679 C29.893,38.53 29.968,38.234 29.893,38.011 ZM28.998,18.71 C28.474,18.71 28.1,18.264 28.026,17.745 C28.026,17.745 28.026,15.888 28.026,15.888 C28.026,15.369 28.474,14.923 28.998,14.923 C29.519,14.923 29.968,15.369 29.968,15.888 C29.968,15.888 29.968,17.745 29.968,17.745 C29.968,18.264 29.519,18.71 28.998,18.71 ZM18.615,57.98 C18.466,58.277 18.092,58.426 17.794,58.426 C17.644,58.426 17.495,58.352 17.346,58.277 C16.898,57.98 16.748,57.461 16.972,57.089 C16.972,57.089 17.943,55.457 17.943,55.457 C18.167,55.01 18.764,54.862 19.213,55.085 C19.6609999999999,55.308 19.8099999999999,55.901 19.586,56.347 C19.586,56.347 18.615,57.98 18.615,57.98 ZM19.213,21.234 C19.063,21.308 18.914,21.382 18.764,21.382 C18.466,21.382 18.092,21.234 17.943,20.937 C17.943,20.937 16.972,19.229 16.972,19.229 C16.748,18.783 16.898,18.19 17.346,17.967 C17.794,17.745 18.391,17.893 18.615,18.338 C18.615,18.338 19.586,19.972 19.586,19.972 C19.8099999999999,20.417 19.6609999999999,21.01 19.213,21.234 ZM11.67,49.146 C11.67,49.146 10.026,50.111 10.026,50.111 C9.87699999999995,50.185 9.72699999999998,50.26 9.57799999999997,50.26 C9.279,50.26 8.90599999999995,50.111 8.75699999999995,49.815 C8.53200000000004,49.369 8.68200000000002,48.775 9.13,48.552 C9.13,48.552 10.773,47.587 10.773,47.587 C11.221,47.29 11.744,47.439 12.043,47.884 C12.2670000000001,48.329 12.1180000000001,48.923 11.67,49.146 ZM11.221,28.954 C11.072,28.954 10.923,28.88 10.773,28.805 C10.773,28.805 9.13,27.84 9.13,27.84 C8.68200000000002,27.543 8.53200000000004,27.024 8.75699999999995,26.653 C8.98000000000002,26.207 9.57799999999997,26.059 10.026,26.281 C10.026,26.281 11.67,27.247 11.67,27.247 C12.1180000000001,27.469 12.2670000000001,28.063 12.043,28.508 C11.894,28.805 11.52,28.954 11.221,28.954 ZM9.42899999999997,38.159 C9.42899999999997,38.679 8.98000000000002,39.124 8.45799999999997,39.124 C8.45799999999997,39.124 6.59100000000001,39.124 6.59100000000001,39.124 C6.06799999999998,39.124 5.62,38.679 5.62,38.159 C5.62,37.639 6.06799999999998,37.194 6.59100000000001,37.194 C6.59100000000001,37.194 8.45799999999997,37.194 8.45799999999997,37.194 C8.98000000000002,37.194 9.42899999999997,37.639 9.42899999999997,38.159 ZM28.998,57.683 C29.519,57.683 29.968,58.054 29.968,58.574 C29.968,58.574 29.968,60.505 29.968,60.505 C29.968,61.024 29.519,61.47 28.998,61.47 C28.474,61.47 28.026,61.024 28.026,60.505 C28.026,60.505 28.026,58.648 28.026,58.648 C28.026,58.129 28.474,57.683 28.998,57.683 ZM47.22,47.587 C47.22,47.587 48.864,48.552 48.864,48.552 C49.312,48.775 49.462,49.369 49.237,49.815 C49.088,50.111 48.7140000000001,50.26 48.4160000000001,50.26 C48.266,50.26 48.1180000000001,50.185 47.968,50.111 C47.968,50.111 46.324,49.146 46.324,49.146 C45.876,48.923 45.727,48.329 45.951,47.958 C46.176,47.513 46.772,47.364 47.22,47.587 Z "/></svg>