<?xml version="1.0" encoding="utf-8"?>
<!DOCTYPE svg PUBLIC "-//W3C//DTD SVG 1.1//EN" "http://www.w3.org/Graphics/SVG/1.1/DTD/svg11.dtd">
<svg version="1.1" baseProfile="full"
 xmlns="http://www.w3.org/2000/svg"
 xmlns:xlink="http://www.w3.org/1999/xlink"
 xmlns:ev="http://www.w3.org/2001/xml-events" 
  height="45px" 
  width="78px" 
>
<path fill="rgb( 222, 222, 226 )"
 d="M72.227,35.128 C72.227,35.128 72.226,35.129 72.226,35.129 C72.226,35.129 72.226,35.13 72.225,35.13 C72.225,35.13 65.538,41.607 65.538,41.607 C64.015,43.083 61.9450000000001,43.83 59.49,43.83 C57.88,43.83 56.104,43.506 54.206,42.858 C51.508,41.934 48.691,40.4 45.872,38.345 C41.967,41.877 34.481,44.003 25.496,44.003 C11.285,44.003 0.56200000000001,39.047 0.47400000000005,32.461 C0.47299999999996,32.435 0.46600000000001,32.41 0.46600000000001,32.383 C0.46600000000001,32.383 0.46600000000001,23.221 0.46600000000001,23.221 C0.46600000000001,23.221 0.46600000000001,23.221 0.46600000000001,23.22 C0.46600000000001,23.22 0.46600000000001,23.22 0.46600000000001,23.219 C0.46600000000001,16.593 11.225,11.597 25.496,11.597 C26.875,11.597 28.215,11.664 29.5309999999999,11.762 C29.8440000000001,10.479 30.444,9.373 31.351,8.495 C31.353,8.493 31.355,8.492 31.357,8.48999999999999 C31.357,8.48999999999999 38.039,2.018 38.039,2.018 C38.039,2.018 38.039,2.018 38.039,2.018 C38.04,2.018 38.04,2.017 38.0410000000001,2.017 C39.397,0.701 41.332,0.004 43.636,0.004 C49.37,0.004 57.26,4.194 64.221,10.941 C73.931,20.343 77.224,30.29 72.227,35.128 ZM4.97699999999998,32.381 C4.97699999999998,35.409 12.782,39.633 25.496,39.633 C33.796,39.633 39.576,37.729 42.366,35.519 C41.763,34.985 41.162,34.432 40.5650000000001,33.854 C40.194,33.495 39.842,33.128 39.485,32.763 C35.595,34.125 30.802,34.843 25.496,34.843 C16.801,34.843 9.42600000000004,32.981 4.97699999999998,30.032 C4.97699999999998,30.032 4.97699999999998,32.381 4.97699999999998,32.381 ZM30.697,20.139 C30.112,18.727 29.727,17.397 29.503,16.147 C28.203,16.041 26.874,15.969 25.496,15.969 C12.785,15.969 4.97699999999998,20.191 4.97699999999998,23.221 C4.97699999999998,26.251 12.782,30.474 25.496,30.474 C29.4690000000001,30.474 33.188,30.018 36.279,29.172 C33.835,26.158 31.907,23.064 30.697,20.139 ZM37.385,13.661 C36.8440000000001,12.355 36.465,11.115 36.2329999999999,9.946 C36.2329999999999,9.946 34.54,11.586 34.54,11.586 C34.539,11.587 34.538,11.588 34.537,11.589 C33.43,12.667 33.564,15.32 34.885,18.514 C36.514,22.45 39.667,26.802 43.755,30.764 C47.748,34.632 51.995,37.464 55.711,38.739 C58.717,39.769 61.136,39.689 62.347,38.517 C62.347,38.517 63.779,37.131 63.779,37.131 C58.759,36.269 52.877,32.825 47.253,27.375 C42.742,23.005 39.2380000000001,18.134 37.385,13.661 ZM61.0309999999999,14.031 C54.145,7.36 47.332,4.374 43.6319999999999,4.374 C42.539,4.374 41.732,4.621 41.23,5.105 C41.23,5.10599999999999 41.23,5.107 41.229,5.107 C41.229,5.107 41.226,5.11 41.226,5.11 C40.119,6.188 40.251,8.842 41.574,12.036 C43.202,15.973 46.353,20.324 50.441,24.286 C57.059,30.696 62.904,32.981 66.164,32.981 C67.425,32.981 68.389,32.663 69.035,32.04 C71.581,29.574 69.245,21.988 61.0309999999999,14.031 Z "/>
</svg>
