<?xml version="1.0" encoding="utf-8"?><!DOCTYPE svg PUBLIC "-//W3C//DTD SVG 1.1//EN" "http://www.w3.org/Graphics/SVG/1.1/DTD/svg11.dtd"><svg version="1.1" baseProfile="full" xmlns="http://www.w3.org/2000/svg" xmlns:xlink="http://www.w3.org/1999/xlink" xmlns:ev="http://www.w3.org/2001/xml-events"   height="22px"   width="10px" ><path fill="rgb( 133, 134, 135 )" d="M9.51300000000003,1.00099999999998 C9.51300000000003,1.00099999999998 7.40200000000004,1.00099999999998 7.40200000000004,1.00099999999998 C7.40200000000004,1.00099999999998 2.99699999999996,0.67200000000003 2.99699999999996,5.31500000000005 C2.99699999999996,6.30799999999999 2.99699999999996,8.50600000000009 2.99699999999996,8.50600000000009 C2.99699999999996,8.50600000000009 0.00599999999997,8.50600000000009 0.00599999999997,8.50600000000009 C0.00599999999997,8.50600000000009 0.01499999999999,11.0070000000001 0.01499999999999,11.0070000000001 C0.01499999999999,11.0070000000001 2.99599999999998,11.0070000000001 2.99599999999998,11.0070000000001 C2.99599999999998,11.0070000000001 2.99800000000005,21.9929999999999 2.99800000000005,21.9929999999999 C2.99800000000005,21.9929999999999 5.995,21.9929999999999 5.995,21.9929999999999 C5.995,21.9929999999999 5.995,11.0070000000001 5.995,11.0070000000001 C5.995,11.0070000000001 9.29499999999996,11.0070000000001 9.29499999999996,11.0070000000001 C9.29499999999996,11.0070000000001 10,8.50600000000009 10,8.50600000000009 C10,8.50600000000009 6.01199999999994,8.50600000000009 6.01199999999994,8.50600000000009 C6.01199999999994,8.50600000000009 6.01199999999994,5.22000000000003 6.01199999999994,5.22000000000003 C6.01199999999994,5.22000000000003 5.97900000000004,4.00199999999995 7.40599999999995,4.00199999999995 C7.40599999999995,4.00199999999995 9.5,4.00199999999995 9.5,4.00199999999995 C9.5,4.00199999999995 9.51300000000003,1.00099999999998 9.51300000000003,1.00099999999998 Z "/></svg>