<?xml version="1.0" encoding="utf-8"?><!DOCTYPE svg PUBLIC "-//W3C//DTD SVG 1.1//EN" "http://www.w3.org/Graphics/SVG/1.1/DTD/svg11.dtd"><svg version="1.1" baseProfile="full" xmlns="http://www.w3.org/2000/svg" xmlns:xlink="http://www.w3.org/1999/xlink" xmlns:ev="http://www.w3.org/2001/xml-events"   height="23px"   width="22px" ><path fill="rgb( 133, 134, 135 )" d="M18.996,4.99399999999991 C18.996,4.99399999999991 18.996,8.00700000000006 18.996,8.00700000000006 C18.996,8.00700000000006 18,8.00700000000006 18,8.00700000000006 C18,8.00700000000006 18,4.99399999999991 18,4.99399999999991 C18,4.99399999999991 15.006,4.99399999999991 15.006,4.99399999999991 C15.006,4.99399999999991 15.006,4.00700000000006 15.006,4.00700000000006 C15.006,4.00700000000006 18,4.00700000000006 18,4.00700000000006 C18,4.00700000000006 18,1 18,1 C18,1 18.996,1 18.996,1 C18.996,1 18.996,4.00700000000006 18.996,4.00700000000006 C18.996,4.00700000000006 21.994,4.00700000000006 21.994,4.00700000000006 C21.994,4.00700000000006 21.994,4.99399999999991 21.994,4.99399999999991 C21.994,4.99399999999991 18.996,4.99399999999991 18.996,4.99399999999991 ZM11.354,2.42200000000003 C12.508,3.0809999999999 13.121,4.43599999999992 13.121,5.93299999999999 C13.121,7.30600000000004 12.359,8.41200000000003 11.2809999999999,9.25099999999998 C10.228,10.0709999999999 10.03,10.413 10.03,11.1099999999999 C10.03,11.704 11.2859999999999,12.5889999999999 11.864,13.021 C13.876,14.5260000000001 14.256,15.472 14.284,17.3520000000001 C14.321,19.8520000000001 11.746,22.0329999999999 7.61900000000003,22.0329999999999 C3.99800000000005,22.0329999999999 0.96400000000006,20.3900000000001 0.96400000000006,18.0419999999999 C0.96400000000006,14.4970000000001 3.47699999999998,13.3530000000001 7.09799999999996,13.3530000000001 C7.49199999999996,13.3530000000001 7.85400000000004,13.3420000000001 8.22799999999995,13.3420000000001 C7.73299999999995,12.864 7.33299999999997,12.45 7.33299999999997,11.7249999999999 C7.33299999999997,11.2929999999999 7.46900000000005,10.8810000000001 7.66300000000001,10.5139999999999 C7.46699999999998,10.5260000000001 7.26599999999996,10.539 7.05899999999997,10.539 C4.08500000000004,10.539 2.35299999999995,8.4559999999999 2.35299999999995,5.846 C2.35299999999995,3.28899999999999 4.98900000000003,0.99800000000005 8.15099999999995,0.99800000000005 C9.78099999999995,0.99800000000005 14.3819999999999,0.99800000000005 14.3819999999999,0.99800000000005 C14.3819999999999,0.99800000000005 12.99,2.42200000000003 12.99,2.42200000000003 C12.99,2.42200000000003 11.354,2.42200000000003 11.354,2.42200000000003 ZM7.70600000000002,15.002 C5.40200000000004,15.002 3.49699999999996,15.865 3.49699999999996,17.489 C3.49699999999996,19.145 5.19600000000003,20.4939999999999 7.548,20.4939999999999 C10.855,20.4939999999999 12.0069999999999,19.23 12.0069999999999,17.5730000000001 C12.0069999999999,17.3720000000001 12.001,17.171 11.932,16.9880000000001 C11.134,15.002 8.56299999999999,15.002 7.70600000000002,15.002 ZM10.499,6.18599999999992 C10.225,4.1110000000001 9.18700000000001,2.54899999999998 7.59400000000005,2.50099999999998 C6,2.45499999999993 4.60299999999995,3.90200000000004 4.88,5.97700000000009 C5.154,8.05600000000004 6.66899999999998,9.44699999999989 8.26400000000001,9.49600000000009 C9.85699999999997,9.54199999999992 10.774,8.2650000000001 10.499,6.18599999999992 Z "/></svg>