<?xml version="1.0" encoding="utf-8"?><!DOCTYPE svg PUBLIC "-//W3C//DTD SVG 1.1//EN" "http://www.w3.org/Graphics/SVG/1.1/DTD/svg11.dtd"><svg version="1.1" baseProfile="full" xmlns="http://www.w3.org/2000/svg" xmlns:xlink="http://www.w3.org/1999/xlink" xmlns:ev="http://www.w3.org/2001/xml-events"   height="17px"   width="17px" ><path fill="rgb( 114, 195, 101 )" d="M13.001,16.145 C13.001,16.145 3,16.145 3,16.145 C1.34400000000005,16.145 0.00099999999998,14.8049999999999 0.00099999999998,13.152 C0.00099999999998,13.152 0.00099999999998,10.159 0.00099999999998,10.159 C0.00099999999998,10.159 3.44500000000005,6.72299999999996 3.44500000000005,6.72299999999996 C3.56799999999998,6.923 3.70799999999997,7.11500000000001 3.88,7.28599999999994 C3.88,7.28599999999994 4.79600000000005,8.20000000000005 4.79600000000005,8.20000000000005 C4.79600000000005,8.20000000000005 2.00099999999998,11.157 2.00099999999998,11.157 C2.00099999999998,11.157 5.00099999999998,11.157 5.00099999999998,11.157 C5.00099999999998,11.157 5.00099999999998,12.154 5.00099999999998,12.154 C5.00099999999998,12.706 5.44799999999998,13.152 6.00099999999998,13.152 C6.00099999999998,13.152 10.001,13.152 10.001,13.152 C10.553,13.152 11.001,12.706 11.001,12.154 C11.001,12.154 11.001,11.157 11.001,11.157 C11.001,11.157 14.001,11.157 14.001,11.157 C14.001,11.157 11.206,8.20000000000005 11.206,8.20000000000005 C11.206,8.20000000000005 12.122,7.28599999999994 12.122,7.28599999999994 C12.294,7.11500000000001 12.434,6.923 12.556,6.72299999999996 C12.556,6.72299999999996 16.001,10.159 16.001,10.159 C16.001,10.159 16.001,13.152 16.001,13.152 C16.001,14.8049999999999 14.658,16.145 13.001,16.145 ZM8.70799999999997,7.87099999999998 C8.51199999999994,8.06600000000003 8.25699999999995,8.16300000000001 8.00099999999998,8.16300000000001 C7.745,8.16300000000001 7.48900000000003,8.06600000000003 7.29399999999998,7.87099999999998 C7.29399999999998,7.87099999999998 5.29399999999998,5.87599999999998 5.29399999999998,5.87599999999998 C5.00800000000004,5.59000000000003 4.923,5.16200000000003 5.077,4.78899999999999 C5.23099999999999,4.41700000000003 5.596,4.17399999999998 6.00099999999998,4.17399999999998 C6.00099999999998,4.17399999999998 7.00099999999998,4.17399999999998 7.00099999999998,4.17399999999998 C7.00099999999998,4.17399999999998 7.00099999999998,1.18100000000004 7.00099999999998,1.18100000000004 C7.00099999999998,0.63 7.44799999999998,0.18299999999999 8.00099999999998,0.18299999999999 C8.553,0.18299999999999 9.00099999999998,0.63 9.00099999999998,1.18100000000004 C9.00099999999998,1.18100000000004 9.00099999999998,4.17399999999998 9.00099999999998,4.17399999999998 C9.00099999999998,4.17399999999998 10.001,4.17399999999998 10.001,4.17399999999998 C10.405,4.17399999999998 10.77,4.41700000000003 10.924,4.78899999999999 C11.079,5.16200000000003 10.994,5.59000000000003 10.707,5.87599999999998 C10.707,5.87599999999998 8.70799999999997,7.87099999999998 8.70799999999997,7.87099999999998 Z "/></svg>