<?xml version="1.0" encoding="utf-8"?>
<!DOCTYPE svg PUBLIC "-//W3C//DTD SVG 1.1//EN" "http://www.w3.org/Graphics/SVG/1.1/DTD/svg11.dtd">
<svg version="1.1" baseProfile="full"
 xmlns="http://www.w3.org/2000/svg"
 xmlns:xlink="http://www.w3.org/1999/xlink"
 xmlns:ev="http://www.w3.org/2001/xml-events" 
  height="13px" 
  width="14px" 
>
<path opacity="0.502" fill="rgb( 72, 85, 101 )"
 d="M6.82799999999997,0 C10.427,0 13.3440000000001,2.90999999999997 13.3440000000001,6.5 C13.3440000000001,10.09 10.427,13 6.82799999999997,13 C3.23000000000002,13 0.31299999999999,10.09 0.31299999999999,6.5 C0.31299999999999,2.90999999999997 3.23000000000002,0 6.82799999999997,0 Z "/>
<path fill="rgb( 255, 255, 255 )"
 d="M7.23800000000006,7.60299999999995 C7.23800000000006,7.60299999999995 7.23800000000006,7.32500000000005 7.23800000000006,7.32500000000005 C7.23800000000006,7.13999999999999 7.28399999999999,6.99000000000001 7.37699999999995,6.87599999999998 C7.46900000000005,6.76099999999997 7.68899999999996,6.59400000000005 8.03599999999994,6.375 C8.54200000000003,6.06600000000003 8.88499999999999,5.78800000000001 9.06600000000003,5.54100000000005 C9.24699999999996,5.29300000000001 9.33699999999999,5 9.33699999999999,4.65999999999997 C9.33699999999999,4.14999999999998 9.11800000000005,3.74199999999996 8.678,3.43700000000001 C8.23900000000003,3.13099999999997 7.64700000000005,2.97799999999995 6.90200000000004,2.97799999999995 C5.99800000000005,2.97799999999995 5.14300000000003,3.17100000000005 4.33600000000001,3.55700000000002 C4.33600000000001,3.55700000000002 4.928,4.572 4.928,4.572 C5.62199999999996,4.26999999999998 6.24000000000001,4.11800000000005 6.78300000000002,4.11800000000005 C7.09400000000005,4.11800000000005 7.33600000000001,4.16999999999996 7.50900000000001,4.27499999999998 C7.68299999999999,4.38099999999997 7.76999999999998,4.53399999999999 7.76999999999998,4.73400000000004 C7.76999999999998,4.91399999999999 7.70899999999995,5.07600000000002 7.58799999999997,5.221 C7.46699999999998,5.36599999999999 7.21699999999998,5.55499999999995 6.83699999999999,5.78700000000003 C6.44299999999998,6.03399999999999 6.17100000000005,6.26700000000005 6.02300000000002,6.48599999999999 C5.875,6.70600000000002 5.80100000000004,6.96400000000006 5.80100000000004,7.25999999999999 C5.80100000000004,7.25999999999999 5.80100000000004,7.60299999999995 5.80100000000004,7.60299999999995 C5.80100000000004,7.60299999999995 7.23800000000006,7.60299999999995 7.23800000000006,7.60299999999995 ZM5.87699999999995,9.76999999999998 C6.04300000000001,9.90700000000004 6.27800000000002,9.976 6.58199999999999,9.976 C6.87800000000004,9.976 7.11000000000001,9.90599999999995 7.27599999999995,9.76499999999999 C7.44200000000001,9.625 7.52599999999995,9.43200000000002 7.52599999999995,9.18799999999999 C7.52599999999995,8.93499999999995 7.44299999999998,8.74000000000001 7.279,8.60400000000004 C7.11400000000003,8.46799999999996 6.88199999999995,8.39999999999998 6.58199999999999,8.39999999999998 C6.27099999999996,8.39999999999998 6.03399999999999,8.46699999999998 5.87099999999998,8.60000000000002 C5.70899999999995,8.73299999999995 5.62699999999995,8.92899999999997 5.62699999999995,9.18799999999999 C5.62699999999995,9.43899999999996 5.71000000000004,9.63300000000004 5.87699999999995,9.76999999999998 Z "/>
</svg>
