<?xml version="1.0" encoding="utf-8"?><!DOCTYPE svg PUBLIC "-//W3C//DTD SVG 1.1//EN" "http://www.w3.org/Graphics/SVG/1.1/DTD/svg11.dtd"><svg version="1.1" baseProfile="full" xmlns="http://www.w3.org/2000/svg" xmlns:xlink="http://www.w3.org/1999/xlink" xmlns:ev="http://www.w3.org/2001/xml-events"   height="36px"   width="36px" ><path fill="rgb( 4, 188, 198 )" d="M18.833,35.986 C18.725,35.986 18.6130000000001,36 18.5,36 C13.813,36 9.41200000000003,34.169 6.11199999999997,30.864 C2.81600000000003,27.564 0.99800000000005,23.171 0.99800000000005,18.495 C0.99800000000005,13.819 2.80700000000002,9.427 6.10299999999995,6.127 C9.40099999999995,2.825 13.806,1.005 18.467,1.002 C18.467,1.002 18.467,0.997 18.467,0.997 C18.467,0.997 36,0.997 36,0.997 C36,0.997 36,5.38 36,5.38 C36,5.38 18.8049999999999,5.38 18.8049999999999,5.38 C18.706,5.38 18.603,5.393 18.5,5.393 C14.985,5.393 11.686,6.747 9.21400000000006,9.223 C6.745,11.696 5.38199999999995,14.989 5.38199999999995,18.495 C5.38199999999995,22.002 6.73500000000001,25.295 9.20500000000004,27.768 C11.675,30.241 14.9880000000001,31.604 18.467,31.607 C18.467,31.607 18.467,31.604 18.467,31.604 C18.467,31.604 36,31.604 36,31.604 C36,31.604 36,35.986 36,35.986 C36,35.986 18.833,35.986 18.833,35.986 ZM32.723,23.952 C32.723,23.952 36,23.952 36,23.952 C36,23.952 36,28.335 36,28.335 C36,28.335 28.311,28.335 28.311,28.335 C28.311,28.335 32.723,23.952 32.723,23.952 ZM16.3,18.492 C16.3,17.281 17.2809999999999,16.3 18.492,16.3 C18.492,16.3 31.66,16.3 31.66,16.3 C31.66,16.3 33.835,18.489 33.835,18.489 C33.835,18.489 31.626,20.683 31.626,20.683 C31.626,20.683 18.492,20.683 18.492,20.683 C17.2809999999999,20.683 16.3,19.702 16.3,18.492 ZM18.492,28.335 C13.069,28.335 8.65800000000002,23.922 8.65800000000002,18.501 C8.65800000000002,13.203 12.872,8.869 18.125,8.676 C18.244,8.656 18.367,8.649 18.492,8.649 C18.492,8.649 24.069,8.649 24.069,8.649 C24.069,8.649 28.425,13.031 28.425,13.031 C28.425,13.031 18.812,13.031 18.812,13.031 C18.707,13.031 18.601,13.053 18.492,13.053 C15.487,13.053 13.042,15.495 13.042,18.499 C13.042,21.504 15.487,23.952 18.492,23.952 C18.492,23.952 28.347,23.952 28.347,23.952 C28.347,23.952 23.9349999999999,28.335 23.9349999999999,28.335 C23.9349999999999,28.335 18.492,28.335 18.492,28.335 ZM28.415,8.649 C28.415,8.649 36,8.649 36,8.649 C36,8.649 36,13.031 36,13.031 C36,13.031 32.771,13.031 32.771,13.031 C32.771,13.031 28.415,8.649 28.415,8.649 Z "/></svg>