<?xml version="1.0" encoding="utf-8"?><!DOCTYPE svg PUBLIC "-//W3C//DTD SVG 1.1//EN" "http://www.w3.org/Graphics/SVG/1.1/DTD/svg11.dtd"><svg version="1.1" baseProfile="full" xmlns="http://www.w3.org/2000/svg" xmlns:xlink="http://www.w3.org/1999/xlink" xmlns:ev="http://www.w3.org/2001/xml-events"   height="18px"   width="26px" ><path fill="rgb( 133, 134, 135 )" d="M21.011,2 C22.114,2 23.011,2.89699999999993 23.011,4 C23.011,4 23.011,14 23.011,14 C23.011,15.1020000000001 22.114,16 21.011,16 C21.011,16 5.01099999999997,16 5.01099999999997,16 C3.90899999999999,16 3.01099999999997,15.1020000000001 3.01099999999997,14 C3.01099999999997,14 3.01099999999997,4 3.01099999999997,4 C3.01099999999997,2.89699999999993 3.90899999999999,2 5.01099999999997,2 C5.01099999999997,2 21.011,2 21.011,2 M21.011,0 C21.011,0 5.01099999999997,0 5.01099999999997,0 C2.80200000000002,0 1.01099999999997,1.79099999999994 1.01099999999997,4 C1.01099999999997,4 1.01099999999997,14 1.01099999999997,14 C1.01099999999997,16.2090000000001 2.80200000000002,18 5.01099999999997,18 C5.01099999999997,18 21.011,18 21.011,18 C23.22,18 25.011,16.2090000000001 25.011,14 C25.011,14 25.011,4 25.011,4 C25.011,1.79099999999994 23.22,0 21.011,0 C21.011,0 21.011,0 21.011,0 ZM13.011,13 C12.8049999999999,13 12.598,12.9359999999999 12.423,12.808 C12.423,12.808 1.423,4.80799999999999 1.423,4.80799999999999 C0.976,4.48399999999992 1.87699999999995,3.85799999999995 2.20299999999997,3.41200000000003 C2.52700000000004,2.96499999999992 2.15200000000004,2.86699999999996 2.59900000000005,3.19100000000003 C2.59900000000005,3.19100000000003 13.011,10.7629999999999 13.011,10.7629999999999 C13.011,10.7629999999999 23.423,3.19100000000003 23.423,3.19100000000003 C23.871,2.86699999999996 24.496,2.96499999999992 24.8200000000001,3.41200000000003 C25.145,3.85799999999995 25.046,4.48399999999992 24.599,4.80799999999999 C24.599,4.80799999999999 13.599,12.808 13.599,12.808 C13.424,12.9359999999999 13.217,13 13.011,13 Z "/></svg>