<?xml version="1.0" encoding="utf-8"?><!DOCTYPE svg PUBLIC "-//W3C//DTD SVG 1.1//EN" "http://www.w3.org/Graphics/SVG/1.1/DTD/svg11.dtd"><svg version="1.1" baseProfile="full" xmlns="http://www.w3.org/2000/svg" xmlns:xlink="http://www.w3.org/1999/xlink" xmlns:ev="http://www.w3.org/2001/xml-events"   height="12px"   width="13px" ><path opacity="0.549" fill="rgb( 255, 255, 255 )" d="M9.75099999999998,11.338 C9.75099999999998,11.338 2.25099999999998,11.338 2.25099999999998,11.338 C1.00900000000001,11.338 0.00099999999998,10.331 0.00099999999998,9.089 C0.00099999999998,9.089 0.00099999999998,5.34099999999999 0.00099999999998,5.34099999999999 C0.00099999999998,4.099 1.00900000000001,3.092 2.25099999999998,3.092 C2.25099999999998,3.092 2.82199999999989,3.092 2.82199999999989,3.092 C2.43900000000008,3.568 2.13000000000011,4.10599999999999 1.90599999999995,4.68600000000001 C1.66799999999989,4.81100000000001 1.50099999999998,5.053 1.50099999999998,5.34099999999999 C1.50099999999998,5.34099999999999 1.50099999999998,9.089 1.50099999999998,9.089 C1.50099999999998,9.503 1.83699999999999,9.839 2.25099999999998,9.839 C2.25099999999998,9.839 9.75099999999998,9.839 9.75099999999998,9.839 C10.165,9.839 10.501,9.503 10.501,9.089 C10.501,9.089 10.501,7.214 10.501,7.214 C10.501,7.214 12.001,6.09 12.001,6.09 C12.001,6.09 12.001,9.089 12.001,9.089 C12.001,10.331 10.9939999999999,11.338 9.75099999999998,11.338 ZM8.70100000000002,6.69 C8.56899999999996,6.789 8.41000000000008,6.84 8.25099999999998,6.84 C8.13699999999994,6.84 8.02199999999993,6.81399999999999 7.91599999999994,6.761 C7.66200000000003,6.634 7.50099999999998,6.374 7.50099999999998,6.09 C7.50099999999998,6.09 7.50099999999998,5.34099999999999 7.50099999999998,5.34099999999999 C5.54299999999989,5.34099999999999 3.88100000000009,6.593 3.26299999999992,8.339 C3.096,7.87 3.00099999999998,7.366 3.00099999999998,6.84 C3.00099999999998,4.35599999999999 5.01600000000008,2.342 7.50099999999998,2.342 C7.50099999999998,2.342 7.50099999999998,1.593 7.50099999999998,1.593 C7.50099999999998,1.30800000000001 7.66200000000003,1.04900000000001 7.91599999999994,0.922 C8.02199999999993,0.869 8.13699999999994,0.843 8.25099999999998,0.843 C8.41000000000008,0.843 8.56899999999996,0.89400000000001 8.70100000000002,0.99299999999999 C8.70100000000002,0.99299999999999 11.701,3.242 11.701,3.242 C11.8900000000001,3.383 12.001,3.605 12.001,3.842 C12.001,4.078 11.8900000000001,4.3 11.701,4.441 C11.701,4.441 8.70100000000002,6.69 8.70100000000002,6.69 Z "/></svg>