<?xml version="1.0" encoding="utf-8"?><!DOCTYPE svg PUBLIC "-//W3C//DTD SVG 1.1//EN" "http://www.w3.org/Graphics/SVG/1.1/DTD/svg11.dtd"><svg version="1.1" baseProfile="full" xmlns="http://www.w3.org/2000/svg" xmlns:xlink="http://www.w3.org/1999/xlink" xmlns:ev="http://www.w3.org/2001/xml-events"   height="17px"   width="16px" ><path fill="rgb( 230, 103, 103 )" d="M13.001,16.145 C13.001,16.145 3.00099999999998,16.145 3.00099999999998,16.145 C1.34299999999996,16.145 0.00099999999998,14.8049999999999 0.00099999999998,13.152 C0.00099999999998,13.152 0.00099999999998,10.159 0.00099999999998,10.159 C0.00099999999998,10.159 4.00099999999998,6.16899999999998 4.00099999999998,6.16899999999998 C4.00099999999998,6.16899999999998 5.00099999999998,6.16899999999998 5.00099999999998,6.16899999999998 C5.00099999999998,6.16899999999998 5.00099999999998,8.16399999999999 5.00099999999998,8.16399999999999 C5.00099999999998,8.16399999999999 4.82899999999995,8.16399999999999 4.82899999999995,8.16399999999999 C4.82899999999995,8.16399999999999 2.00099999999998,11.157 2.00099999999998,11.157 C2.00099999999998,11.157 5.00099999999998,11.157 5.00099999999998,11.157 C5.00099999999998,11.157 5.00099999999998,12.155 5.00099999999998,12.155 C5.00099999999998,12.706 5.44799999999998,13.152 6.00099999999998,13.152 C6.00099999999998,13.152 10.001,13.152 10.001,13.152 C10.553,13.152 11,12.706 11,12.155 C11,12.155 11,11.157 11,11.157 C11,11.157 14,11.157 14,11.157 C14,11.157 11.172,8.16399999999999 11.172,8.16399999999999 C11.172,8.16399999999999 11,8.16399999999999 11,8.16399999999999 C11,8.16399999999999 11,6.16899999999998 11,6.16899999999998 C11,6.16899999999998 12,6.16899999999998 12,6.16899999999998 C12,6.16899999999998 16,10.159 16,10.159 C16,10.159 16,13.152 16,13.152 C16,14.8049999999999 14.658,16.145 13.001,16.145 ZM10.001,4.17399999999998 C10.001,4.17399999999998 9.00099999999998,4.17399999999998 9.00099999999998,4.17399999999998 C9.00099999999998,4.17399999999998 9.00099999999998,7.16600000000005 9.00099999999998,7.16600000000005 C9.00099999999998,7.71799999999996 8.553,8.16399999999999 8.00099999999998,8.16399999999999 C7.44799999999998,8.16399999999999 7,7.71799999999996 7,7.16600000000005 C7,7.16600000000005 7,4.17399999999998 7,4.17399999999998 C7,4.17399999999998 6.00099999999998,4.17399999999998 6.00099999999998,4.17399999999998 C5.596,4.17399999999998 5.23099999999999,3.93100000000004 5.077,3.55799999999999 C4.923,3.18600000000004 5.00800000000004,2.75599999999997 5.29300000000001,2.471 C5.29300000000001,2.471 7.29300000000001,0.476 7.29300000000001,0.476 C7.48900000000003,0.28099999999995 7.745,0.18299999999999 8.00099999999998,0.18299999999999 C8.25599999999997,0.18299999999999 8.51199999999994,0.28099999999995 8.70799999999997,0.476 C8.70799999999997,0.476 10.707,2.471 10.707,2.471 C10.994,2.75599999999997 11.078,3.18499999999995 10.924,3.55799999999999 C10.77,3.92999999999995 10.405,4.17399999999998 10.001,4.17399999999998 Z "/></svg>