<?xml version="1.0" encoding="utf-8"?><!DOCTYPE svg PUBLIC "-//W3C//DTD SVG 1.1//EN" "http://www.w3.org/Graphics/SVG/1.1/DTD/svg11.dtd"><svg version="1.1" baseProfile="full" xmlns="http://www.w3.org/2000/svg" xmlns:xlink="http://www.w3.org/1999/xlink" xmlns:ev="http://www.w3.org/2001/xml-events"   height="8px"   width="8px" ><path fill="rgb( 255, 255, 255 )" d="M8,5 C8,5 5,5 5,5 C5,5 5,8 5,8 C5,8 3,8 3,8 C3,8 3,5 3,5 C3,5 0,5 0,5 C0,5 0,3 0,3 C0,3 3,3 3,3 C3,3 3,0 3,0 C3,0 5,0 5,0 C5,0 5,3 5,3 C5,3 8,3 8,3 C8,3 8,5 8,5 Z "/></svg>