<?xml version="1.0" encoding="utf-8"?><!DOCTYPE svg PUBLIC "-//W3C//DTD SVG 1.1//EN" "http://www.w3.org/Graphics/SVG/1.1/DTD/svg11.dtd"><svg version="1.1" baseProfile="full" xmlns="http://www.w3.org/2000/svg" xmlns:xlink="http://www.w3.org/1999/xlink" xmlns:ev="http://www.w3.org/2001/xml-events"   height="65px"   width="69px" ><path fill="rgb( 222, 222, 226 )" d="M46.965,36.825 C51.107,36.825 56.583,35.292 62.388,29.432 C69,22.75 68.6609999999999,16.972 67.871,14.121 C66.838,10.386 63.905,7.489 60.221,6.563 C57.933,5.988 55.745,6.137 53.856,6.573 C54.03,3.036 53.807,0.992 53.807,0.992 C53.807,0.992 34.841,0.992 34.841,0.992 C34.841,0.992 16.184,0.992 16.184,0.992 C16.184,0.992 15.9640000000001,3.036 16.139,6.573 C14.248,6.138 12.062,5.989 9.77300000000002,6.563 C6.09000000000003,7.489 3.15700000000004,10.386 2.12199999999996,14.121 C1.33199999999999,16.972 0.99699999999996,22.75 7.60900000000004,29.432 C13.4109999999999,35.292 18.8869999999999,36.825 23.029,36.825 C24.2569999999999,36.825 25.362,36.689 26.33,36.491 C29.4589999999999,39.954 32.159,42.259 32.159,48.299 C32.159,58.857 25.8339999999999,59.827 25.8339999999999,59.827 C25.8339999999999,59.827 18.76,59.827 18.76,59.827 C18.76,59.827 18.76,65 18.76,65 C18.76,65 34.841,65 34.841,65 C34.841,65 50.919,65 50.919,65 C50.919,65 50.919,59.827 50.919,59.827 C50.919,59.827 44.158,59.827 44.158,59.827 C44.158,59.827 37.835,58.857 37.835,48.299 C37.835,42.259 40.532,39.954 43.667,36.491 C44.6319999999999,36.69 45.737,36.825 46.965,36.825 ZM50.486,24.698 C51.985,19.952 52.848,15.685 53.333,12.121 C54.857,11.527 56.899,11.062 58.975,11.583 C60.865,12.058 62.376,13.562 62.914,15.508 C63.76,18.56 62.277,22.209 58.7380000000001,25.784 C54.353,30.214 50.357,31.488 47.39,31.62 C48.514,29.782 49.582,27.555 50.486,24.698 ZM11.256,25.784 C7.71900000000005,22.209 6.23400000000004,18.56 7.07899999999995,15.508 C7.61800000000005,13.562 9.12699999999995,12.057 11.021,11.583 C13.092,11.062 15.135,11.527 16.66,12.121 C17.145,15.685 18.009,19.952 19.509,24.698 C20.412,27.555 21.48,29.782 22.606,31.62 C19.634,31.489 15.641,30.214 11.256,25.784 ZM34.841,23.402 C34.841,23.402 28.37,26.819 28.37,26.819 C28.37,26.819 29.6079999999999,19.58 29.6079999999999,19.58 C29.6079999999999,19.58 24.376,14.454 24.376,14.454 C24.376,14.454 31.604,13.397 31.604,13.397 C31.604,13.397 34.841,6.81 34.841,6.81 C34.841,6.81 38.071,13.397 38.071,13.397 C38.071,13.397 45.3049999999999,14.454 45.3049999999999,14.454 C45.3049999999999,14.454 40.0700000000001,19.58 40.0700000000001,19.58 C40.0700000000001,19.58 41.306,26.819 41.306,26.819 C41.306,26.819 34.841,23.402 34.841,23.402 Z "/></svg>