<?xml version="1.0" encoding="utf-8"?><!DOCTYPE svg PUBLIC "-//W3C//DTD SVG 1.1//EN" "http://www.w3.org/Graphics/SVG/1.1/DTD/svg11.dtd"><svg version="1.1" baseProfile="full" xmlns="http://www.w3.org/2000/svg" xmlns:xlink="http://www.w3.org/1999/xlink" xmlns:ev="http://www.w3.org/2001/xml-events"   height="20px"   width="26px" ><path fill="rgb( 255, 255, 255 )" d="M7.01900000000001,9.45100000000002 C7.01900000000001,9.45100000000002 4.37,11.9930000000001 4.37,11.9930000000001 C4.276,12.083 4.151,12.133 4.021,12.133 C4.017,12.133 4.01300000000001,12.133 4.009,12.133 C3.875,12.13 3.748,12.074 3.655,11.976 C3.655,11.976 1.129,9.31299999999999 1.129,9.31299999999999 C0.93600000000001,9.10900000000004 0.944,8.78700000000003 1.146,8.59299999999996 C1.348,8.39999999999998 1.66800000000001,8.40700000000004 1.861,8.61000000000001 C1.861,8.61000000000001 3.51600000000001,10.354 3.51600000000001,10.354 C3.57299999999999,6.35199999999998 6.133,2.77800000000002 9.961,1.49199999999996 C14.044,0.12099999999998 18.532,1.702 20.874,5.33699999999999 C21.026,5.57299999999998 20.959,5.88900000000001 20.724,6.04100000000005 C20.489,6.19399999999996 20.176,6.12599999999998 20.024,5.88999999999999 C17.933,2.64400000000001 13.926,1.23199999999997 10.281,2.45699999999999 C6.84399999999999,3.61199999999997 4.554,6.83399999999995 4.529,10.433 C4.529,10.433 6.321,8.71400000000006 6.321,8.71400000000006 C6.523,8.52099999999996 6.843,8.52800000000002 7.036,8.73099999999999 C7.22799999999999,8.93499999999995 7.221,9.25699999999995 7.01900000000001,9.45100000000002 ZM24.82,12.306 C24.624,12.506 24.303,12.508 24.105,12.3099999999999 C24.105,12.3099999999999 22.391,10.604 22.391,10.604 C22.352,14.624 19.789,18.22 15.948,19.51 C14.964,19.841 13.955,20 12.96,20 C9.825,20 6.812,18.424 5.03400000000001,15.664 C4.88200000000001,15.429 4.949,15.1130000000001 5.184,14.961 C5.41800000000001,14.808 5.732,14.875 5.884,15.111 C7.97499999999999,18.357 11.982,19.769 15.627,18.545 C19.064,17.39 21.353,14.168 21.378,10.569 C21.378,10.569 19.642,12.331 19.642,12.331 C19.543,12.431 19.412,12.481 19.282,12.481 C19.154,12.481 19.025,12.432 18.926,12.3339999999999 C18.728,12.136 18.726,11.814 18.923,11.614 C18.923,11.614 21.5,8.99900000000002 21.5,8.99900000000002 C21.697,8.79999999999995 22.017,8.798 22.216,8.99599999999998 C22.216,8.99599999999998 24.817,11.586 24.817,11.586 C25.016,11.785 25.017,12.107 24.82,12.306 Z "/></svg>