<?xml version="1.0" encoding="utf-8"?><!DOCTYPE svg PUBLIC "-//W3C//DTD SVG 1.1//EN" "http://www.w3.org/Graphics/SVG/1.1/DTD/svg11.dtd"><svg version="1.1" baseProfile="full" xmlns="http://www.w3.org/2000/svg" xmlns:xlink="http://www.w3.org/1999/xlink" xmlns:ev="http://www.w3.org/2001/xml-events"   height="13px"   width="13px" ><path fill="rgb( 3, 188, 197 )" d="M11.2529999999999,6.93000000000001 C11.2529999999999,6.93000000000001 10.5029999999999,6.93000000000001 10.5029999999999,6.93000000000001 C10.4770000000001,6.93000000000001 10.454,6.91800000000001 10.4290000000001,6.91500000000001 C10.3140000000001,7.607 10.047,8.244 9.65499999999997,8.791 C9.67399999999998,8.806 9.69699999999989,8.813 9.71499999999992,8.831 C9.71499999999992,8.831 10.2449999999999,9.361 10.2449999999999,9.361 C10.539,9.65300000000001 10.539,10.128 10.2449999999999,10.421 C9.952,10.714 9.47800000000007,10.714 9.18499999999995,10.421 C9.18499999999995,10.421 8.654,9.89100000000001 8.654,9.89100000000001 C8.63699999999994,9.873 8.63000000000011,9.84999999999999 8.61500000000001,9.831 C8.06700000000001,10.223 7.43000000000006,10.49 6.73800000000006,10.604 C6.74099999999999,10.63 6.75299999999993,10.652 6.75299999999993,10.678 C6.75299999999993,10.678 6.75299999999993,11.428 6.75299999999993,11.428 C6.75299999999993,11.842 6.41699999999992,12.177 6.00299999999993,12.177 C5.58899999999994,12.177 5.25299999999993,11.842 5.25299999999993,11.428 C5.25299999999993,11.428 5.25299999999993,10.678 5.25299999999993,10.678 C5.25299999999993,10.652 5.2650000000001,10.63 5.26800000000003,10.604 C4.57500000000005,10.49 3.93900000000008,10.223 3.39100000000008,9.831 C3.375,9.84999999999999 3.36899999999991,9.873 3.35100000000011,9.89100000000001 C3.35100000000011,9.89100000000001 2.82099999999991,10.421 2.82099999999991,10.421 C2.52800000000002,10.714 2.05300000000011,10.714 1.75999999999999,10.421 C1.4670000000001,10.128 1.4670000000001,9.65300000000001 1.75999999999999,9.361 C1.75999999999999,9.361 2.28999999999996,8.831 2.28999999999996,8.831 C2.30799999999999,8.813 2.3309999999999,8.806 2.34999999999991,8.791 C1.95800000000008,8.244 1.69100000000003,7.607 1.577,6.91500000000001 C1.55099999999993,6.91800000000001 1.529,6.93000000000001 1.50299999999993,6.93000000000001 C1.50299999999993,6.93000000000001 0.75299999999993,6.93000000000001 0.75299999999993,6.93000000000001 C0.33899999999994,6.93000000000001 0.00299999999993,6.59399999999999 0.00299999999993,6.18000000000001 C0.00299999999993,5.76600000000001 0.33899999999994,5.431 0.75299999999993,5.431 C0.75299999999993,5.431 1.50299999999993,5.431 1.50299999999993,5.431 C1.529,5.431 1.55099999999993,5.443 1.577,5.44499999999999 C1.69100000000003,4.753 1.95800000000008,4.117 2.34999999999991,3.56999999999999 C2.3309999999999,3.554 2.30799999999999,3.547 2.28999999999996,3.53 C2.28999999999996,3.53 1.75999999999999,3 1.75999999999999,3 C1.4670000000001,2.70699999999999 1.4670000000001,2.232 1.75999999999999,1.93899999999999 C2.05300000000011,1.64700000000001 2.52800000000002,1.64700000000001 2.82099999999991,1.93899999999999 C2.82099999999991,1.93899999999999 3.35100000000011,2.47 3.35100000000011,2.47 C3.36899999999991,2.48699999999999 3.375,2.511 3.39100000000008,2.529 C3.93900000000008,2.137 4.57500000000005,1.871 5.26800000000003,1.756 C5.2650000000001,1.73099999999999 5.25299999999993,1.709 5.25299999999993,1.682 C5.25299999999993,1.682 5.25299999999993,0.93300000000001 5.25299999999993,0.93300000000001 C5.25299999999993,0.51900000000001 5.58899999999994,0.18300000000001 6.00299999999993,0.18300000000001 C6.41699999999992,0.18300000000001 6.75299999999993,0.51900000000001 6.75299999999993,0.93300000000001 C6.75299999999993,0.93300000000001 6.75299999999993,1.682 6.75299999999993,1.682 C6.75299999999993,1.709 6.74099999999999,1.73099999999999 6.73800000000006,1.756 C7.43000000000006,1.871 8.06700000000001,2.137 8.61500000000001,2.529 C8.63000000000011,2.511 8.63699999999994,2.48699999999999 8.654,2.47 C8.654,2.47 9.18499999999995,1.93899999999999 9.18499999999995,1.93899999999999 C9.47800000000007,1.64700000000001 9.952,1.64700000000001 10.2449999999999,1.93899999999999 C10.539,2.232 10.539,2.70699999999999 10.2449999999999,3 C10.2449999999999,3 9.71499999999992,3.53 9.71499999999992,3.53 C9.69699999999989,3.547 9.67399999999998,3.554 9.65499999999997,3.56999999999999 C10.047,4.117 10.3140000000001,4.753 10.4290000000001,5.44499999999999 C10.454,5.443 10.4770000000001,5.431 10.5029999999999,5.431 C10.5029999999999,5.431 11.2529999999999,5.431 11.2529999999999,5.431 C11.6669999999999,5.431 12.0029999999999,5.76600000000001 12.0029999999999,6.18000000000001 C12.0029999999999,6.59399999999999 11.6669999999999,6.93000000000001 11.2529999999999,6.93000000000001 ZM6.00299999999993,3.931 C4.75999999999999,3.931 3.75299999999993,4.938 3.75299999999993,6.18000000000001 C3.75299999999993,7.422 4.75999999999999,8.429 6.00299999999993,8.429 C7.24499999999989,8.429 8.25299999999993,7.422 8.25299999999993,6.18000000000001 C8.25299999999993,4.938 7.24499999999989,3.931 6.00299999999993,3.931 Z "/></svg>