<?xml version="1.0" encoding="utf-8"?><!DOCTYPE svg PUBLIC "-//W3C//DTD SVG 1.1//EN" "http://www.w3.org/Graphics/SVG/1.1/DTD/svg11.dtd"><svg version="1.1" baseProfile="full" xmlns="http://www.w3.org/2000/svg" xmlns:xlink="http://www.w3.org/1999/xlink" xmlns:ev="http://www.w3.org/2001/xml-events"   height="17px"   width="17px" ><path fill="rgb( 255, 255, 255 )" d="M16.727,8.134 C16.727,8.472 16.7,8.804 16.659,9.131 C16.649,9.211 16.635,9.289 16.623,9.369 C16.579,9.643 16.525,9.914 16.454,10.179 C16.441,10.225 16.431,10.273 16.418,10.319 C16.228,10.981 15.957,11.609 15.615,12.19 C14.926,13.355 13.954,14.329 12.789,15.017 C12.208,15.36 11.581,15.631 10.919,15.821 C10.873,15.834 10.825,15.844 10.779,15.857 C10.514,15.928 10.244,15.982 9.96900000000005,16.026 C9.88999999999999,16.038 9.81100000000004,16.052 9.73099999999999,16.062 C9.40499999999997,16.103 9.07299999999998,16.131 8.73500000000001,16.131 C8.73500000000001,16.131 8.73500000000001,16.131 8.73500000000001,16.131 C8.73500000000001,16.131 8.73500000000001,16.131 8.73500000000001,16.131 C8.39700000000005,16.131 8.06600000000003,16.103 7.74000000000001,16.062 C7.65899999999999,16.052 7.58100000000002,16.038 7.50099999999998,16.026 C7.22699999999998,15.982 6.95699999999999,15.928 6.69200000000001,15.857 C6.64599999999996,15.844 6.59799999999996,15.834 6.55200000000002,15.821 C5.88999999999999,15.631 5.26199999999994,15.36 4.68200000000002,15.017 C3.51700000000005,14.329 2.54399999999998,13.355 1.85599999999999,12.19 C1.51300000000003,11.609 1.24300000000005,10.981 1.053,10.319 C1.03999999999996,10.273 1.029,10.225 1.01700000000005,10.179 C0.94600000000003,9.914 0.89200000000005,9.643 0.84799999999996,9.369 C0.83600000000001,9.289 0.822,9.211 0.81200000000001,9.131 C0.77099999999996,8.804 0.74400000000003,8.472 0.74400000000003,8.134 C0.74400000000003,8.134 0.74400000000003,8.134 0.74400000000003,8.134 C0.74400000000003,8.134 0.74400000000003,8.134 0.74400000000003,8.134 C0.74400000000003,7.796 0.77099999999996,7.465 0.81200000000001,7.138 C0.822,7.058 0.83600000000001,6.979 0.84799999999996,6.9 C0.89200000000005,6.625 0.94600000000003,6.354 1.01700000000005,6.09 C1.029,6.043 1.03999999999996,5.996 1.053,5.949 C1.24300000000005,5.288 1.51300000000003,4.659 1.85599999999999,4.078 C2.54399999999998,2.913 3.51700000000005,1.94 4.68200000000002,1.251 C5.26199999999994,0.908 5.88999999999999,0.638 6.55200000000002,0.448 C6.59799999999996,0.435 6.64599999999996,0.424 6.69200000000001,0.412 C6.95699999999999,0.341 7.22699999999998,0.286 7.50099999999998,0.243 C7.58100000000002,0.23 7.65899999999999,0.217 7.74000000000001,0.206 C8.06600000000003,0.165 8.39700000000005,0.138 8.73500000000001,0.138 C8.73500000000001,0.138 8.73500000000001,0.138 8.73500000000001,0.138 C8.73500000000001,0.138 8.73500000000001,0.138 8.73500000000001,0.138 C9.07299999999998,0.138 9.40499999999997,0.165 9.73099999999999,0.206 C9.81100000000004,0.217 9.88999999999999,0.23 9.96900000000005,0.243 C10.244,0.286 10.514,0.341 10.779,0.412 C10.825,0.424 10.873,0.435 10.919,0.448 C11.581,0.638 12.208,0.908 12.789,1.251 C13.954,1.94 14.926,2.913 15.615,4.078 C15.957,4.659 16.228,5.288 16.418,5.949 C16.431,5.996 16.441,6.043 16.454,6.09 C16.525,6.354 16.579,6.625 16.623,6.9 C16.635,6.979 16.649,7.058 16.659,7.138 C16.7,7.465 16.727,7.796 16.727,8.134 C16.727,8.134 16.727,8.134 16.727,8.134 C16.727,8.134 16.727,8.134 16.727,8.134 ZM4.09299999999996,6.317 C4.09299999999996,6.317 2.60699999999997,4.83 2.60699999999997,4.83 C2.07299999999998,5.818 1.74300000000005,6.932 1.74300000000005,8.134 C1.74300000000005,9.336 2.07299999999998,10.45 2.60699999999997,11.439 C2.60699999999997,11.439 4.09299999999996,9.952 4.09299999999996,9.952 C3.87199999999996,9.387 3.74000000000001,8.777 3.74000000000001,8.134 C3.74000000000001,7.491 3.87199999999996,6.881 4.09299999999996,6.317 ZM8.73500000000001,15.131 C9.93700000000001,15.131 11.05,14.8 12.038,14.266 C12.038,14.266 10.552,12.779 10.552,12.779 C9.98699999999997,13 9.37800000000004,13.132 8.73500000000001,13.132 C8.09299999999996,13.132 7.48299999999995,13 6.91899999999998,12.779 C6.91899999999998,12.779 5.43299999999999,14.266 5.43299999999999,14.266 C6.41999999999996,14.8 7.53399999999999,15.131 8.73500000000001,15.131 ZM8.73500000000001,1.137 C7.53399999999999,1.137 6.41999999999996,1.469 5.43299999999999,2.003 C5.43299999999999,2.003 6.91899999999998,3.49 6.91899999999998,3.49 C7.48299999999995,3.268 8.09299999999996,3.137 8.73500000000001,3.137 C9.37800000000004,3.137 9.98699999999997,3.268 10.552,3.49 C10.552,3.49 12.038,2.003 12.038,2.003 C11.05,1.469 9.93700000000001,1.137 8.73500000000001,1.137 ZM12.583,7.112 C12.583,7.112 12.583,7.112 12.583,7.112 C12.216,5.731 11.138,4.651 9.75699999999995,4.285 C9.75699999999995,4.285 9.75699999999995,4.285 9.75699999999995,4.285 C9.75699999999995,4.285 9.75699999999995,4.285 9.75699999999995,4.285 C9.625,4.249 9.49199999999996,4.22 9.35500000000002,4.198 C9.15300000000002,4.162 8.94799999999998,4.136 8.73500000000001,4.136 C8.52300000000002,4.136 8.31799999999998,4.162 8.11599999999999,4.198 C7.97900000000004,4.22 7.846,4.249 7.71299999999997,4.285 C7.71299999999997,4.285 7.71299999999997,4.285 7.71299999999997,4.285 C7.71299999999997,4.285 7.71299999999997,4.285 7.71299999999997,4.285 C6.33299999999997,4.651 5.25400000000002,5.731 4.88800000000003,7.112 C4.88800000000003,7.112 4.88800000000003,7.112 4.88800000000003,7.112 C4.88800000000003,7.112 4.88800000000003,7.112 4.88800000000003,7.112 C4.85299999999995,7.244 4.82299999999998,7.377 4.80200000000002,7.515 C4.76499999999999,7.717 4.73900000000003,7.922 4.73900000000003,8.134 C4.73900000000003,8.347 4.76499999999999,8.552 4.80200000000002,8.754 C4.82299999999998,8.891 4.85299999999995,9.024 4.88800000000003,9.157 C4.88800000000003,9.157 4.88800000000003,9.157 4.88800000000003,9.157 C4.88800000000003,9.157 4.88800000000003,9.157 4.88800000000003,9.157 C5.25400000000002,10.538 6.33299999999997,11.617 7.71299999999997,11.984 C7.71299999999997,11.984 7.71299999999997,11.984 7.71299999999997,11.984 C7.71299999999997,11.984 7.71299999999997,11.984 7.71299999999997,11.984 C7.846,12.019 7.97900000000004,12.048 8.11599999999999,12.07 C8.31799999999998,12.106 8.52300000000002,12.132 8.73500000000001,12.132 C8.94799999999998,12.132 9.15300000000002,12.106 9.35500000000002,12.07 C9.49199999999996,12.048 9.625,12.019 9.75699999999995,11.984 C9.75699999999995,11.984 9.75699999999995,11.984 9.75699999999995,11.984 C9.75699999999995,11.984 9.75699999999995,11.984 9.75699999999995,11.984 C11.138,11.617 12.216,10.538 12.583,9.157 C12.583,9.157 12.583,9.157 12.583,9.157 C12.583,9.157 12.583,9.157 12.583,9.157 C12.6180000000001,9.024 12.647,8.891 12.669,8.754 C12.705,8.552 12.731,8.347 12.731,8.134 C12.731,7.922 12.705,7.717 12.669,7.515 C12.647,7.377 12.6180000000001,7.244 12.583,7.112 C12.583,7.112 12.583,7.112 12.583,7.112 ZM14.864,4.83 C14.864,4.83 13.378,6.317 13.378,6.317 C13.599,6.881 13.73,7.491 13.73,8.134 C13.73,8.777 13.599,9.387 13.378,9.952 C13.378,9.952 14.864,11.439 14.864,11.439 C15.397,10.45 15.728,9.336 15.728,8.134 C15.728,6.932 15.397,5.818 14.864,4.83 Z "/></svg>