<?xml version="1.0" encoding="utf-8"?><!DOCTYPE svg PUBLIC "-//W3C//DTD SVG 1.1//EN" "http://www.w3.org/Graphics/SVG/1.1/DTD/svg11.dtd"><svg version="1.1" baseProfile="full" xmlns="http://www.w3.org/2000/svg" xmlns:xlink="http://www.w3.org/1999/xlink" xmlns:ev="http://www.w3.org/2001/xml-events"   height="18px"   width="22px" ><path fill="rgb( 133, 134, 135 )" d="M21.163,2.04700000000003 C20.39,2.3889999999999 19.5599999999999,2.61899999999991 18.688,2.72399999999993 C19.578,2.19299999999998 20.261,1.35100000000011 20.582,0.34999999999991 C19.751,0.84099999999989 18.828,1.19800000000009 17.848,1.39100000000008 C17.062,0.55700000000002 15.942,0.03600000000006 14.704,0.03600000000006 C12.325,0.03600000000006 10.396,1.95700000000011 10.396,4.32600000000002 C10.396,4.66000000000008 10.434,4.98900000000003 10.508,5.30400000000009 C6.928,5.12300000000005 3.75400000000002,3.41599999999994 1.63,0.82300000000009 C1.25900000000001,1.45499999999993 1.04600000000005,2.19100000000003 1.04600000000005,2.97700000000009 C1.04600000000005,4.46599999999989 1.80700000000002,5.77800000000002 2.96299999999997,6.54700000000003 C2.25699999999995,6.52500000000009 1.59199999999998,6.33200000000011 1.01199999999994,6.00999999999999 C1.01099999999997,6.02800000000002 1.01099999999997,6.04600000000005 1.01099999999997,6.06500000000005 C1.01099999999997,8.14300000000003 2.49599999999998,9.87599999999998 4.46699999999998,10.27 C4.10500000000002,10.3679999999999 3.72500000000002,10.4200000000001 3.33199999999999,10.4200000000001 C3.05399999999997,10.4200000000001 2.78399999999999,10.394 2.52099999999996,10.3430000000001 C3.06899999999996,12.048 4.65999999999997,13.288 6.54499999999996,13.3209999999999 C5.07100000000003,14.472 3.21299999999997,15.1579999999999 1.19600000000003,15.1579999999999 C0.84799999999996,15.1579999999999 0.505,15.1379999999999 0.16800000000001,15.097 C2.07399999999996,16.3140000000001 4.33799999999997,17.0250000000001 6.77099999999996,17.0250000000001 C14.693,17.0250000000001 19.025,10.49 19.025,4.82199999999989 C19.025,4.63699999999994 19.021,4.45100000000002 19.014,4.26700000000005 C19.856,3.66200000000003 20.585,2.90699999999993 21.163,2.04700000000003 Z "/></svg>