<?xml version="1.0" encoding="utf-8"?><!DOCTYPE svg PUBLIC "-//W3C//DTD SVG 1.1//EN" "http://www.w3.org/Graphics/SVG/1.1/DTD/svg11.dtd"><svg version="1.1" baseProfile="full" xmlns="http://www.w3.org/2000/svg" xmlns:xlink="http://www.w3.org/1999/xlink" xmlns:ev="http://www.w3.org/2001/xml-events"   height="18px"   width="24px" ><path fill="rgb( 255, 255, 255 )" d="M20,1 C20,1 1,1 1,1 C1,1 1,13 1,13 C1,13 16,13 16,13 C16,13 16,14 16,14 C16,14 13,14 13,14 C13,14 13,15.5 13,15.5 C13,15.5 14.5,15.5 14.5,15.5 C14.5,15.5 14.5,16.5 14.5,16.5 C14.5,16.5 6.5,16.5 6.5,16.5 C6.5,16.5 6.5,15.5 6.5,15.5 C6.5,15.5 8,15.5 8,15.5 C8,15.5 8,14 8,14 C8,14 1,14 1,14 C0.45,14 0,13.55 0,13 C0,13 0,1 0,1 C0,0.45000000000005 0.45,0 1,0 C1,0 20,0 20,0 C20.55,0 21,0.45000000000005 21,1 C21,1 21,5 21,5 C21,5 20,5 20,5 C20,5 20,1 20,1 ZM23,7.5 C23,7.5 18,7.5 18,7.5 C18,7.5 18,16 18,16 C18,16 23,16 23,16 C23,16 23,7.5 23,7.5 ZM21.5,6.5 C21.5,6.5 19.5,6.5 19.5,6.5 C19.5,6.5 19.5,7 19.5,7 C19.5,7 21.5,7 21.5,7 C21.5,7 21.5,6.5 21.5,6.5 ZM20.5,17.5 C20.775,17.5 21,17.275 21,17 C21,16.725 20.775,16.5 20.5,16.5 C20.225,16.5 20,16.725 20,17 C20,17.275 20.225,17.5 20.5,17.5 ZM23,18 C23,18 18,18 18,18 C17.45,18 17,17.55 17,17 C17,17 17,7 17,7 C17,6.45000000000005 17.45,6 18,6 C18,6 23,6 23,6 C23.55,6 24,6.45000000000005 24,7 C24,7 24,17 24,17 C24,17.55 23.55,18 23,18 Z "/></svg>