<?xml version="1.0" encoding="utf-8"?><!DOCTYPE svg PUBLIC "-//W3C//DTD SVG 1.1//EN" "http://www.w3.org/Graphics/SVG/1.1/DTD/svg11.dtd"><svg version="1.1" baseProfile="full" xmlns="http://www.w3.org/2000/svg" xmlns:xlink="http://www.w3.org/1999/xlink" xmlns:ev="http://www.w3.org/2001/xml-events"   height="12px"   width="10px" ><path opacity="0.549" fill="rgb( 255, 255, 255 )" d="M9.50199999999995,10.575 C9.50199999999995,10.988 9.16699999999992,11.323 8.75199999999995,11.323 C8.75199999999995,11.323 1.25299999999993,11.323 1.25299999999993,11.323 C0.83799999999997,11.323 0.50199999999995,10.988 0.50199999999995,10.575 C0.50199999999995,9.07899999999999 1.952,7.68300000000001 3.43399999999997,7.13 C2.57799999999997,6.60299999999999 2.00199999999995,5.667 2.00199999999995,4.59 C2.00199999999995,4.59 2.00199999999995,3.84099999999999 2.00199999999995,3.84099999999999 C2.00199999999995,2.18899999999999 3.34500000000003,0.849 5.00199999999995,0.849 C6.65900000000011,0.849 8.00199999999995,2.18899999999999 8.00199999999995,3.84099999999999 C8.00199999999995,3.84099999999999 8.00199999999995,4.59 8.00199999999995,4.59 C8.00199999999995,5.667 7.42699999999991,6.60299999999999 6.57099999999991,7.13 C8.05300000000011,7.68300000000001 9.50199999999995,9.07899999999999 9.50199999999995,10.575 Z "/></svg>