<?xml version="1.0" encoding="utf-8"?><!DOCTYPE svg PUBLIC "-//W3C//DTD SVG 1.1//EN" "http://www.w3.org/Graphics/SVG/1.1/DTD/svg11.dtd"><svg version="1.1" baseProfile="full" xmlns="http://www.w3.org/2000/svg" xmlns:xlink="http://www.w3.org/1999/xlink" xmlns:ev="http://www.w3.org/2001/xml-events"   height="22px"   width="25px" ><path fill="rgb( 255, 255, 255 )" d="M16.01,11.187 C16.01,11.187 16.806,10.417 16.806,10.417 C16.806,10.417 18.487,12.394 18.487,12.394 C18.487,12.394 22.318,8.98500000000001 22.318,8.98500000000001 C22.318,8.98500000000001 23.007,9.87199999999996 23.007,9.87199999999996 C23.007,9.87199999999996 18.376,13.984 18.376,13.984 C18.376,13.984 16.01,11.187 16.01,11.187 ZM24.475,15.046 C24.475,15.046 24.475,6.71900000000005 24.475,6.71900000000005 C24.475,5.42499999999995 24.364,5.322 23.036,5.322 C23.036,5.322 16.192,5.322 16.192,5.322 C14.864,5.322 14.758,5.42499999999995 14.758,6.71900000000005 C14.758,6.71900000000005 14.758,15.2859999999999 14.758,15.2859999999999 C14.758,16.58 14.864,16.681 16.192,16.681 C16.192,16.681 22.793,16.681 22.793,16.681 C22.793,16.681 22.793,17.187 22.793,17.187 C22.793,17.187 16.192,17.187 16.192,17.187 C14.582,17.187 14.239,16.854 14.239,15.2859999999999 C14.239,15.2859999999999 14.239,6.71900000000005 14.239,6.71900000000005 C14.239,5.14700000000005 14.582,4.81700000000001 16.192,4.81700000000001 C16.192,4.81700000000001 23.036,4.81700000000001 23.036,4.81700000000001 C24.65,4.81700000000001 24.994,5.14700000000005 24.994,6.71900000000005 C24.994,6.71900000000005 24.994,15.046 24.994,15.046 C24.994,15.046 24.475,15.046 24.475,15.046 ZM12.994,0.88800000000003 C11.309,0.88800000000003 9.726,1.32500000000005 8.358,2.08699999999999 C8.358,2.08699999999999 8.741,2.73400000000004 8.741,2.73400000000004 C8.741,2.73400000000004 7.227,2.83699999999999 7.227,2.83699999999999 C7.18300000000001,2.87099999999998 7.13,2.90499999999997 7.086,2.93899999999996 C7.086,2.93899999999996 5.741,2.93899999999996 5.741,2.93899999999996 C5.741,2.93899999999996 7.39100000000001,0.45600000000002 7.39100000000001,0.45600000000002 C7.39100000000001,0.45600000000002 7.914,1.33399999999995 7.914,1.33399999999995 C9.414,0.49900000000002 11.147,0.01099999999997 12.994,0.01099999999997 C15.822,0.01099999999997 18.386,1.13199999999995 20.248,2.93899999999996 C20.248,2.93899999999996 18.901,2.93899999999996 18.901,2.93899999999996 C17.292,1.65899999999999 15.233,0.88800000000003 12.994,0.88800000000003 ZM9.488,14.042 C9.488,14.042 3.265,14.042 3.265,14.042 C3.265,14.042 3.265,13.537 3.265,13.537 C3.265,13.537 9.488,13.537 9.488,13.537 C9.488,13.537 9.488,14.042 9.488,14.042 ZM3.265,7.96199999999999 C3.265,7.96199999999999 9.488,7.96199999999999 9.488,7.96199999999999 C9.488,7.96199999999999 9.488,8.46299999999997 9.488,8.46299999999997 C9.488,8.46299999999997 3.265,8.46299999999997 3.265,8.46299999999997 C3.265,8.46299999999997 3.265,7.96199999999999 3.265,7.96199999999999 ZM9.488,11.252 C9.488,11.252 3.265,11.252 3.265,11.252 C3.265,11.252 3.265,10.747 3.265,10.747 C3.265,10.747 9.488,10.747 9.488,10.747 C9.488,10.747 9.488,11.252 9.488,11.252 ZM11.754,6.71900000000005 C11.754,6.71900000000005 11.754,15.046 11.754,15.046 C11.754,15.046 11.235,15.046 11.235,15.046 C11.235,15.046 11.235,6.71900000000005 11.235,6.71900000000005 C11.235,5.42499999999995 11.124,5.31799999999998 9.797,5.31799999999998 C9.797,5.31799999999998 2.952,5.31799999999998 2.952,5.31799999999998 C1.624,5.31799999999998 1.518,5.42499999999995 1.518,6.71900000000005 C1.518,6.71900000000005 1.518,15.282 1.518,15.282 C1.518,16.575 1.624,16.681 2.952,16.681 C2.952,16.681 9.55500000000001,16.681 9.55500000000001,16.681 C9.55500000000001,16.681 9.55500000000001,17.187 9.55500000000001,17.187 C9.55500000000001,17.187 2.952,17.187 2.952,17.187 C1.343,17.187 0.999,16.854 0.999,15.282 C0.999,15.282 0.999,6.71900000000005 0.999,6.71900000000005 C0.999,5.14700000000005 1.343,4.81200000000001 2.952,4.81200000000001 C2.952,4.81200000000001 9.797,4.81200000000001 9.797,4.81200000000001 C11.41,4.81200000000001 11.754,5.14700000000005 11.754,6.71900000000005 ZM11.433,15.3579999999999 C11.433,15.3579999999999 9.876,16.874 9.876,16.874 C9.876,16.874 9.876,15.3579999999999 9.876,15.3579999999999 C9.876,15.3579999999999 11.433,15.3579999999999 11.433,15.3579999999999 ZM12.994,21.111 C14.683,21.111 16.262,20.675 17.631,19.913 C17.631,19.913 17.212,19.211 17.212,19.211 C17.212,19.211 18.801,19.134 18.801,19.134 C18.835,19.1079999999999 18.866,19.087 18.897,19.0599999999999 C18.897,19.0599999999999 20.243,19.0599999999999 20.243,19.0599999999999 C20.243,19.0599999999999 18.563,21.4880000000001 18.563,21.4880000000001 C18.563,21.4880000000001 18.074,20.6660000000001 18.074,20.6660000000001 C16.574,21.502 14.846,21.989 12.994,21.989 C10.166,21.989 7.601,20.872 5.745,19.0650000000001 C5.745,19.0650000000001 7.09099999999999,19.0650000000001 7.09099999999999,19.0650000000001 C8.706,20.341 10.76,21.111 12.994,21.111 ZM23.116,16.874 C23.116,16.874 23.116,15.3579999999999 23.116,15.3579999999999 C23.116,15.3579999999999 24.672,15.3579999999999 24.672,15.3579999999999 C24.672,15.3579999999999 23.116,16.874 23.116,16.874 Z "/></svg>