<?xml version="1.0" encoding="utf-8"?><!DOCTYPE svg PUBLIC "-//W3C//DTD SVG 1.1//EN" "http://www.w3.org/Graphics/SVG/1.1/DTD/svg11.dtd"><svg version="1.1" baseProfile="full" xmlns="http://www.w3.org/2000/svg" xmlns:xlink="http://www.w3.org/1999/xlink" xmlns:ev="http://www.w3.org/2001/xml-events"   height="11px"   width="12px" ><path opacity="0.502" fill="rgb( 133, 134, 136 )" d="M11.0119999999999,8.684 C11.0119999999999,8.684 9.58000000000004,10.117 9.58000000000004,10.117 C9.58000000000004,10.117 6,6.535 6,6.535 C6,6.535 2.41999999999996,10.117 2.41999999999996,10.117 C2.41999999999996,10.117 0.98800000000006,8.684 0.98800000000006,8.684 C0.98800000000006,8.684 4.56799999999998,5.102 4.56799999999998,5.102 C4.56799999999998,5.102 0.98800000000006,1.52 0.98800000000006,1.52 C0.98800000000006,1.52 2.41999999999996,0.087 2.41999999999996,0.087 C2.41999999999996,0.087 6,3.669 6,3.669 C6,3.669 9.58000000000004,0.087 9.58000000000004,0.087 C9.58000000000004,0.087 11.0119999999999,1.52 11.0119999999999,1.52 C11.0119999999999,1.52 7.43200000000002,5.102 7.43200000000002,5.102 C7.43200000000002,5.102 11.0119999999999,8.684 11.0119999999999,8.684 Z "/></svg>